<?xml version="1.0" encoding="utf-8" standalone="no"?>
<!DOCTYPE svg PUBLIC "-//W3C//DTD SVG 1.1//EN"
  "http://www.w3.org/Graphics/SVG/1.1/DTD/svg11.dtd">
<svg xmlns:xlink="http://www.w3.org/1999/xlink" width="497.42875pt" height="496.680625pt" viewBox="0 0 497.42875 496.680625" xmlns="http://www.w3.org/2000/svg" version="1.1">
 <metadata>
  <rdf:RDF xmlns:dc="http://purl.org/dc/elements/1.1/" xmlns:cc="http://creativecommons.org/ns#" xmlns:rdf="http://www.w3.org/1999/02/22-rdf-syntax-ns#">
   <cc:Work>
    <dc:type rdf:resource="http://purl.org/dc/dcmitype/StillImage"/>
    <dc:date>2025-04-11T09:08:15.858720</dc:date>
    <dc:format>image/svg+xml</dc:format>
    <dc:creator>
     <cc:Agent>
      <dc:title>Matplotlib v3.10.1, https://matplotlib.org/</dc:title>
     </cc:Agent>
    </dc:creator>
   </cc:Work>
  </rdf:RDF>
 </metadata>
 <defs>
  <style type="text/css">*{stroke-linejoin: round; stroke-linecap: butt}</style>
 </defs>
 <g id="figure_1">
  <g id="patch_1">
   <path d="M 0 496.680625 
L 497.42875 496.680625 
L 497.42875 0 
L 0 0 
z
" style="fill: #ffffff"/>
  </g>
  <g id="axes_1">
   <g id="patch_2">
    <path d="M 76.15875 453.3175 
L 490.22875 453.3175 
L 490.22875 25.3575 
L 76.15875 25.3575 
z
" style="fill: #ffffff"/>
   </g>
   <g id="PathCollection_1">
    <defs>
     <path id="m00f630ffda" d="M 0 2.5 
C 0.663008 2.5 1.29895 2.236584 1.767767 1.767767 
C 2.236584 1.29895 2.5 0.663008 2.5 0 
C 2.5 -0.663008 2.236584 -1.29895 1.767767 -1.767767 
C 1.29895 -2.236584 0.663008 -2.5 0 -2.5 
C -0.663008 -2.5 -1.29895 -2.236584 -1.767767 -1.767767 
C -2.236584 -1.29895 -2.5 -0.663008 -2.5 0 
C -2.5 0.663008 -2.236584 1.29895 -1.767767 1.767767 
C -1.29895 2.236584 -0.663008 2.5 0 2.5 
z
" style="stroke: #000000; stroke-opacity: 0.6"/>
    </defs>
    <g clip-path="url(#p5e4d24aa8b)">
     <use xlink:href="#m00f630ffda" x="117.359856" y="275.002993" style="fill-opacity: 0.6; stroke: #000000; stroke-opacity: 0.6"/>
     <use xlink:href="#m00f630ffda" x="94.980114" y="300.371764" style="fill-opacity: 0.6; stroke: #000000; stroke-opacity: 0.6"/>
     <use xlink:href="#m00f630ffda" x="229.706165" y="351.265849" style="fill-opacity: 0.6; stroke: #000000; stroke-opacity: 0.6"/>
     <use xlink:href="#m00f630ffda" x="117.807451" y="203.66024" style="fill-opacity: 0.6; stroke: #000000; stroke-opacity: 0.6"/>
     <use xlink:href="#m00f630ffda" x="117.359856" y="297.906497" style="fill-opacity: 0.6; stroke: #000000; stroke-opacity: 0.6"/>
     <use xlink:href="#m00f630ffda" x="274.46565" y="301.556036" style="fill-opacity: 0.6; stroke: #000000; stroke-opacity: 0.6"/>
     <use xlink:href="#m00f630ffda" x="121.835805" y="319.821028" style="fill-opacity: 0.6; stroke: #000000; stroke-opacity: 0.6"/>
     <use xlink:href="#m00f630ffda" x="471.407386" y="311.213488" style="fill-opacity: 0.6; stroke: #000000; stroke-opacity: 0.6"/>
     <use xlink:href="#m00f630ffda" x="363.984621" y="317.620846" style="fill-opacity: 0.6; stroke: #000000; stroke-opacity: 0.6"/>
     <use xlink:href="#m00f630ffda" x="301.321342" y="334.592034" style="fill-opacity: 0.6; stroke: #000000; stroke-opacity: 0.6"/>
     <use xlink:href="#m00f630ffda" x="256.561856" y="219.701084" style="fill-opacity: 0.6; stroke: #000000; stroke-opacity: 0.6"/>
     <use xlink:href="#m00f630ffda" x="104.379606" y="328.675497" style="fill-opacity: 0.6; stroke: #000000; stroke-opacity: 0.6"/>
     <use xlink:href="#m00f630ffda" x="94.980114" y="303.17481" style="fill-opacity: 0.6; stroke: #000000; stroke-opacity: 0.6"/>
     <use xlink:href="#m00f630ffda" x="440.075747" y="214.117507" style="fill-opacity: 0.6; stroke: #000000; stroke-opacity: 0.6"/>
     <use xlink:href="#m00f630ffda" x="108.855554" y="250.501776" style="fill-opacity: 0.6; stroke: #000000; stroke-opacity: 0.6"/>
     <use xlink:href="#m00f630ffda" x="287.893496" y="282.141038" style="fill-opacity: 0.6; stroke: #000000; stroke-opacity: 0.6"/>
     <use xlink:href="#m00f630ffda" x="252.085908" y="213.690596" style="fill-opacity: 0.6; stroke: #000000; stroke-opacity: 0.6"/>
     <use xlink:href="#m00f630ffda" x="117.807451" y="285.267404" style="fill-opacity: 0.6; stroke: #000000; stroke-opacity: 0.6"/>
     <use xlink:href="#m00f630ffda" x="189.422628" y="227.655978" style="fill-opacity: 0.6; stroke: #000000; stroke-opacity: 0.6"/>
     <use xlink:href="#m00f630ffda" x="305.79729" y="325.64863" style="fill-opacity: 0.6; stroke: #000000; stroke-opacity: 0.6"/>
     <use xlink:href="#m00f630ffda" x="104.379606" y="313.345335" style="fill-opacity: 0.6; stroke: #000000; stroke-opacity: 0.6"/>
     <use xlink:href="#m00f630ffda" x="287.893496" y="221.16774" style="fill-opacity: 0.6; stroke: #000000; stroke-opacity: 0.6"/>
     <use xlink:href="#m00f630ffda" x="130.787702" y="304.943657" style="fill-opacity: 0.6; stroke: #000000; stroke-opacity: 0.6"/>
     <use xlink:href="#m00f630ffda" x="117.359856" y="312.429055" style="fill-opacity: 0.6; stroke: #000000; stroke-opacity: 0.6"/>
     <use xlink:href="#m00f630ffda" x="135.711245" y="236.179139" style="fill-opacity: 0.6; stroke: #000000; stroke-opacity: 0.6"/>
     <use xlink:href="#m00f630ffda" x="234.182113" y="259.718057" style="fill-opacity: 0.6; stroke: #000000; stroke-opacity: 0.6"/>
     <use xlink:href="#m00f630ffda" x="404.268158" y="291.47669" style="fill-opacity: 0.6; stroke: #000000; stroke-opacity: 0.6"/>
     <use xlink:href="#m00f630ffda" x="94.980114" y="253.583972" style="fill-opacity: 0.6; stroke: #000000; stroke-opacity: 0.6"/>
     <use xlink:href="#m00f630ffda" x="381.888415" y="298.854006" style="fill-opacity: 0.6; stroke: #000000; stroke-opacity: 0.6"/>
     <use xlink:href="#m00f630ffda" x="247.609959" y="199.575472" style="fill-opacity: 0.6; stroke: #000000; stroke-opacity: 0.6"/>
     <use xlink:href="#m00f630ffda" x="117.807451" y="234.207334" style="fill-opacity: 0.6; stroke: #000000; stroke-opacity: 0.6"/>
     <use xlink:href="#m00f630ffda" x="108.855554" y="298.778475" style="fill-opacity: 0.6; stroke: #000000; stroke-opacity: 0.6"/>
     <use xlink:href="#m00f630ffda" x="256.561856" y="216.177189" style="fill-opacity: 0.6; stroke: #000000; stroke-opacity: 0.6"/>
     <use xlink:href="#m00f630ffda" x="117.359856" y="281.477696" style="fill-opacity: 0.6; stroke: #000000; stroke-opacity: 0.6"/>
     <use xlink:href="#m00f630ffda" x="121.835805" y="303.627999" style="fill-opacity: 0.6; stroke: #000000; stroke-opacity: 0.6"/>
     <use xlink:href="#m00f630ffda" x="130.787702" y="189.625467" style="fill-opacity: 0.6; stroke: #000000; stroke-opacity: 0.6"/>
     <use xlink:href="#m00f630ffda" x="332.652981" y="276.131936" style="fill-opacity: 0.6; stroke: #000000; stroke-opacity: 0.6"/>
     <use xlink:href="#m00f630ffda" x="117.359856" y="257.891439" style="fill-opacity: 0.6; stroke: #000000; stroke-opacity: 0.6"/>
     <use xlink:href="#m00f630ffda" x="117.807451" y="216.572012" style="fill-opacity: 0.6; stroke: #000000; stroke-opacity: 0.6"/>
     <use xlink:href="#m00f630ffda" x="117.359856" y="121.887555" style="fill-opacity: 0.6; stroke: #000000; stroke-opacity: 0.6"/>
     <use xlink:href="#m00f630ffda" x="121.835805" y="166.842919" style="fill-opacity: 0.6; stroke: #000000; stroke-opacity: 0.6"/>
     <use xlink:href="#m00f630ffda" x="175.994782" y="44.810227" style="fill-opacity: 0.6; stroke: #000000; stroke-opacity: 0.6"/>
     <use xlink:href="#m00f630ffda" x="121.835805" y="121.435819" style="fill-opacity: 0.6; stroke: #000000; stroke-opacity: 0.6"/>
     <use xlink:href="#m00f630ffda" x="122.730995" y="239.321746" style="fill-opacity: 0.6; stroke: #000000; stroke-opacity: 0.6"/>
     <use xlink:href="#m00f630ffda" x="117.359856" y="224.076028" style="fill-opacity: 0.6; stroke: #000000; stroke-opacity: 0.6"/>
     <use xlink:href="#m00f630ffda" x="130.787702" y="73.526214" style="fill-opacity: 0.6; stroke: #000000; stroke-opacity: 0.6"/>
     <use xlink:href="#m00f630ffda" x="283.417547" y="264.912754" style="fill-opacity: 0.6; stroke: #000000; stroke-opacity: 0.6"/>
     <use xlink:href="#m00f630ffda" x="148.691496" y="143.79007" style="fill-opacity: 0.6; stroke: #000000; stroke-opacity: 0.6"/>
     <use xlink:href="#m00f630ffda" x="117.807451" y="280.165074" style="fill-opacity: 0.6; stroke: #000000; stroke-opacity: 0.6"/>
     <use xlink:href="#m00f630ffda" x="247.609959" y="63.164946" style="fill-opacity: 0.6; stroke: #000000; stroke-opacity: 0.6"/>
    </g>
   </g>
   <g id="FillBetweenPolyCollection_1">
    <defs>
     <path id="mf75019c5f3" d="M 94.980114 -318.221651 
L 94.980114 -238.128906 
L 98.782409 -238.244069 
L 102.584705 -238.348564 
L 106.387001 -238.441306 
L 110.189296 -238.521072 
L 113.991592 -238.586477 
L 117.793888 -238.635955 
L 121.596183 -238.667726 
L 125.398479 -238.679771 
L 129.200775 -238.669794 
L 133.00307 -238.635183 
L 136.805366 -238.57297 
L 140.607662 -238.479786 
L 144.409958 -238.351812 
L 148.212253 -238.184742 
L 152.014549 -237.97374 
L 155.816845 -237.713423 
L 159.61914 -237.397855 
L 163.421436 -237.020589 
L 167.223732 -236.574746 
L 171.026027 -236.053167 
L 174.828323 -235.44863 
L 178.630619 -234.754148 
L 182.432914 -233.963336 
L 186.23521 -233.070808 
L 190.037506 -232.072571 
L 193.839801 -230.966339 
L 197.642097 -229.751735 
L 201.444393 -228.430323 
L 205.246688 -227.005469 
L 209.048984 -225.482068 
L 212.85128 -223.866165 
L 216.653576 -222.164562 
L 220.455871 -220.384429 
L 224.258167 -218.532979 
L 228.060463 -216.617223 
L 231.862758 -214.643785 
L 235.665054 -212.618806 
L 239.46735 -210.547884 
L 243.269645 -208.436064 
L 247.071941 -206.287853 
L 250.874237 -204.107253 
L 254.676532 -201.897801 
L 258.478828 -199.662616 
L 262.281124 -197.404439 
L 266.083419 -195.125686 
L 269.885715 -192.828477 
L 273.688011 -190.514681 
L 277.490306 -188.185943 
L 281.292602 -185.843714 
L 285.094898 -183.489278 
L 288.897194 -181.123771 
L 292.699489 -178.748201 
L 296.501785 -176.363462 
L 300.304081 -173.970354 
L 304.106376 -171.569589 
L 307.908672 -169.161804 
L 311.710968 -166.747571 
L 315.513263 -164.327404 
L 319.315559 -161.901764 
L 323.117855 -159.47107 
L 326.92015 -157.035699 
L 330.722446 -154.595993 
L 334.524742 -152.152261 
L 338.327037 -149.704787 
L 342.129333 -147.253827 
L 345.931629 -144.799616 
L 349.733924 -142.342369 
L 353.53622 -139.882281 
L 357.338516 -137.419534 
L 361.140812 -134.954294 
L 364.943107 -132.486712 
L 368.745403 -130.016929 
L 372.547699 -127.545074 
L 376.349994 -125.071269 
L 380.15229 -122.595623 
L 383.954586 -120.11824 
L 387.756881 -117.639214 
L 391.559177 -115.158635 
L 395.361473 -112.676586 
L 399.163768 -110.193142 
L 402.966064 -107.708376 
L 406.76836 -105.222354 
L 410.570655 -102.73514 
L 414.372951 -100.246791 
L 418.175247 -97.757362 
L 421.977542 -95.266904 
L 425.779838 -92.775467 
L 429.582134 -90.283094 
L 433.38443 -87.789829 
L 437.186725 -85.295711 
L 440.989021 -82.800778 
L 444.791317 -80.305066 
L 448.593612 -77.808608 
L 452.395908 -75.311436 
L 456.198204 -72.813579 
L 460.000499 -70.315067 
L 463.802795 -67.815925 
L 467.605091 -65.316179 
L 471.407386 -62.815852 
L 471.407386 -270.355086 
L 471.407386 -270.355086 
L 467.605091 -270.1091 
L 463.802795 -269.863693 
L 460.000499 -269.61889 
L 456.198204 -269.374717 
L 452.395908 -269.1312 
L 448.593612 -268.888368 
L 444.791317 -268.64625 
L 440.989021 -268.404877 
L 437.186725 -268.164284 
L 433.38443 -267.924506 
L 429.582134 -267.68558 
L 425.779838 -267.447547 
L 421.977542 -267.210449 
L 418.175247 -266.974331 
L 414.372951 -266.739242 
L 410.570655 -266.505232 
L 406.76836 -266.272357 
L 402.966064 -266.040675 
L 399.163768 -265.810248 
L 395.361473 -265.581144 
L 391.559177 -265.353434 
L 387.756881 -265.127195 
L 383.954586 -264.902509 
L 380.15229 -264.679465 
L 376.349994 -264.458159 
L 372.547699 -264.238693 
L 368.745403 -264.021178 
L 364.943107 -263.805735 
L 361.140812 -263.592492 
L 357.338516 -263.381591 
L 353.53622 -263.173184 
L 349.733924 -262.967436 
L 345.931629 -262.764528 
L 342.129333 -262.564657 
L 338.327037 -262.368037 
L 334.524742 -262.174902 
L 330.722446 -261.98551 
L 326.92015 -261.800143 
L 323.117855 -261.619111 
L 319.315559 -261.442757 
L 315.513263 -261.271457 
L 311.710968 -261.10563 
L 307.908672 -260.945736 
L 304.106376 -260.792291 
L 300.304081 -260.645865 
L 296.501785 -260.507097 
L 292.699489 -260.376698 
L 288.897194 -260.255467 
L 285.094898 -260.144299 
L 281.292602 -260.044203 
L 277.490306 -259.956314 
L 273.688011 -259.881915 
L 269.885715 -259.822459 
L 266.083419 -259.77959 
L 262.281124 -259.755176 
L 258.478828 -259.751339 
L 254.676532 -259.770493 
L 250.874237 -259.815381 
L 247.071941 -259.88912 
L 243.269645 -259.995249 
L 239.46735 -260.137768 
L 235.665054 -260.321186 
L 231.862758 -260.550546 
L 228.060463 -260.831449 
L 224.258167 -261.170031 
L 220.455871 -261.572922 
L 216.653576 -262.047128 
L 212.85128 -262.599864 
L 209.048984 -263.238302 
L 205.246688 -263.969239 
L 201.444393 -264.798726 
L 197.642097 -265.731653 
L 193.839801 -266.771389 
L 190.037506 -267.919496 
L 186.23521 -269.175598 
L 182.432914 -270.53741 
L 178.630619 -272.000938 
L 174.828323 -273.560796 
L 171.026027 -275.210597 
L 167.223732 -276.943358 
L 163.421436 -278.751855 
L 159.61914 -280.628929 
L 155.816845 -282.5677 
L 152.014549 -284.561722 
L 148.212253 -286.60506 
L 144.409958 -288.69233 
L 140.607662 -290.818696 
L 136.805366 -292.979851 
L 133.00307 -295.171978 
L 129.200775 -297.391706 
L 125.398479 -299.636069 
L 121.596183 -301.902453 
L 117.793888 -304.188564 
L 113.991592 -306.492381 
L 110.189296 -308.812126 
L 106.387001 -311.146232 
L 102.584705 -313.493313 
L 98.782409 -315.852148 
L 94.980114 -318.221651 
z
" style="stroke: #808080; stroke-opacity: 0.3"/>
    </defs>
    <g clip-path="url(#p5e4d24aa8b)">
     <use xlink:href="#mf75019c5f3" x="0" y="496.680625" style="fill: #808080; fill-opacity: 0.3; stroke: #808080; stroke-opacity: 0.3"/>
    </g>
   </g>
   <g id="matplotlib.axis_1">
    <g id="xtick_1">
     <g id="line2d_1">
      <defs>
       <path id="m23227525bb" d="M 0 0 
L 0 3.5 
" style="stroke: #000000; stroke-width: 0.8"/>
      </defs>
      <g>
       <use xlink:href="#m23227525bb" x="94.980114" y="453.3175" style="stroke: #000000; stroke-width: 0.8"/>
      </g>
     </g>
     <g id="text_1">
      <!-- 0 -->
      <g transform="translate(91.162614 469.435625) scale(0.12 -0.12)">
       <defs>
        <path id="DejaVuSerif-30" d="M 2034 219 
Q 2513 219 2750 744 
Q 2988 1269 2988 2328 
Q 2988 3391 2750 3916 
Q 2513 4441 2034 4441 
Q 1556 4441 1318 3916 
Q 1081 3391 1081 2328 
Q 1081 1269 1318 744 
Q 1556 219 2034 219 
z
M 2034 -91 
Q 1275 -91 848 546 
Q 422 1184 422 2328 
Q 422 3475 848 4112 
Q 1275 4750 2034 4750 
Q 2797 4750 3222 4112 
Q 3647 3475 3647 2328 
Q 3647 1184 3222 546 
Q 2797 -91 2034 -91 
z
" transform="scale(0.015625)"/>
       </defs>
       <use xlink:href="#DejaVuSerif-30"/>
      </g>
     </g>
    </g>
    <g id="xtick_2">
     <g id="line2d_2">
      <g>
       <use xlink:href="#m23227525bb" x="184.499085" y="453.3175" style="stroke: #000000; stroke-width: 0.8"/>
      </g>
     </g>
     <g id="text_2">
      <!-- 20 -->
      <g transform="translate(176.864085 469.435625) scale(0.12 -0.12)">
       <defs>
        <path id="DejaVuSerif-32" d="M 819 3553 
L 469 3553 
L 469 4384 
Q 803 4563 1142 4656 
Q 1481 4750 1806 4750 
Q 2534 4750 2956 4397 
Q 3378 4044 3378 3438 
Q 3378 2753 2422 1800 
Q 2347 1728 2309 1691 
L 1131 513 
L 3078 513 
L 3078 1088 
L 3444 1088 
L 3444 0 
L 434 0 
L 434 341 
L 1850 1753 
Q 2319 2222 2519 2614 
Q 2719 3006 2719 3438 
Q 2719 3909 2473 4175 
Q 2228 4441 1797 4441 
Q 1350 4441 1106 4219 
Q 863 3997 819 3553 
z
" transform="scale(0.015625)"/>
       </defs>
       <use xlink:href="#DejaVuSerif-32"/>
       <use xlink:href="#DejaVuSerif-30" transform="translate(63.623047 0)"/>
      </g>
     </g>
    </g>
    <g id="xtick_3">
     <g id="line2d_3">
      <g>
       <use xlink:href="#m23227525bb" x="274.018055" y="453.3175" style="stroke: #000000; stroke-width: 0.8"/>
      </g>
     </g>
     <g id="text_3">
      <!-- 40 -->
      <g transform="translate(266.383055 469.435625) scale(0.12 -0.12)">
       <defs>
        <path id="DejaVuSerif-34" d="M 2234 1581 
L 2234 4063 
L 641 1581 
L 2234 1581 
z
M 3609 0 
L 1484 0 
L 1484 331 
L 2234 331 
L 2234 1247 
L 197 1247 
L 197 1588 
L 2241 4750 
L 2859 4750 
L 2859 1581 
L 3750 1581 
L 3750 1247 
L 2859 1247 
L 2859 331 
L 3609 331 
L 3609 0 
z
" transform="scale(0.015625)"/>
       </defs>
       <use xlink:href="#DejaVuSerif-34"/>
       <use xlink:href="#DejaVuSerif-30" transform="translate(63.623047 0)"/>
      </g>
     </g>
    </g>
    <g id="xtick_4">
     <g id="line2d_4">
      <g>
       <use xlink:href="#m23227525bb" x="363.537026" y="453.3175" style="stroke: #000000; stroke-width: 0.8"/>
      </g>
     </g>
     <g id="text_4">
      <!-- 60 -->
      <g transform="translate(355.902026 469.435625) scale(0.12 -0.12)">
       <defs>
        <path id="DejaVuSerif-36" d="M 2094 219 
Q 2534 219 2771 542 
Q 3009 866 3009 1472 
Q 3009 2078 2771 2401 
Q 2534 2725 2094 2725 
Q 1647 2725 1412 2412 
Q 1178 2100 1178 1509 
Q 1178 888 1415 553 
Q 1653 219 2094 219 
z
M 1075 2569 
Q 1288 2803 1556 2918 
Q 1825 3034 2163 3034 
Q 2859 3034 3264 2615 
Q 3669 2197 3669 1472 
Q 3669 763 3233 336 
Q 2797 -91 2069 -91 
Q 1278 -91 853 498 
Q 428 1088 428 2181 
Q 428 3406 931 4078 
Q 1434 4750 2350 4750 
Q 2597 4750 2869 4703 
Q 3141 4656 3425 4563 
L 3425 3794 
L 3072 3794 
Q 3034 4109 2831 4275 
Q 2628 4441 2284 4441 
Q 1678 4441 1381 3981 
Q 1084 3522 1075 2569 
z
" transform="scale(0.015625)"/>
       </defs>
       <use xlink:href="#DejaVuSerif-36"/>
       <use xlink:href="#DejaVuSerif-30" transform="translate(63.623047 0)"/>
      </g>
     </g>
    </g>
    <g id="xtick_5">
     <g id="line2d_5">
      <g>
       <use xlink:href="#m23227525bb" x="453.055997" y="453.3175" style="stroke: #000000; stroke-width: 0.8"/>
      </g>
     </g>
     <g id="text_5">
      <!-- 80 -->
      <g transform="translate(445.420997 469.435625) scale(0.12 -0.12)">
       <defs>
        <path id="DejaVuSerif-38" d="M 2981 1275 
Q 2981 1775 2732 2051 
Q 2484 2328 2034 2328 
Q 1584 2328 1336 2051 
Q 1088 1775 1088 1275 
Q 1088 772 1336 495 
Q 1584 219 2034 219 
Q 2484 219 2732 495 
Q 2981 772 2981 1275 
z
M 2853 3541 
Q 2853 3966 2637 4203 
Q 2422 4441 2034 4441 
Q 1650 4441 1433 4203 
Q 1216 3966 1216 3541 
Q 1216 3113 1433 2875 
Q 1650 2638 2034 2638 
Q 2422 2638 2637 2875 
Q 2853 3113 2853 3541 
z
M 2516 2484 
Q 3047 2413 3344 2092 
Q 3641 1772 3641 1275 
Q 3641 619 3225 264 
Q 2809 -91 2034 -91 
Q 1263 -91 845 264 
Q 428 619 428 1275 
Q 428 1772 725 2092 
Q 1022 2413 1556 2484 
Q 1084 2569 832 2842 
Q 581 3116 581 3541 
Q 581 4103 968 4426 
Q 1356 4750 2034 4750 
Q 2713 4750 3100 4426 
Q 3488 4103 3488 3541 
Q 3488 3116 3236 2842 
Q 2984 2569 2516 2484 
z
" transform="scale(0.015625)"/>
       </defs>
       <use xlink:href="#DejaVuSerif-38"/>
       <use xlink:href="#DejaVuSerif-30" transform="translate(63.623047 0)"/>
      </g>
     </g>
    </g>
    <g id="text_6">
     <!-- DUNG -->
     <g transform="translate(259.964688 486.569063) scale(0.14 -0.14)">
      <defs>
       <path id="DejaVuSerif-44" d="M 1581 331 
L 2163 331 
Q 3072 331 3558 850 
Q 4044 1369 4044 2338 
Q 4044 3306 3559 3818 
Q 3075 4331 2163 4331 
L 1581 4331 
L 1581 331 
z
M 353 0 
L 353 331 
L 947 331 
L 947 4331 
L 353 4331 
L 353 4666 
L 2209 4666 
Q 3416 4666 4089 4050 
Q 4763 3434 4763 2338 
Q 4763 1238 4088 619 
Q 3413 0 2209 0 
L 353 0 
z
" transform="scale(0.015625)"/>
       <path id="DejaVuSerif-55" d="M 897 4331 
L 300 4331 
L 300 4666 
L 2125 4666 
L 2125 4331 
L 1528 4331 
L 1528 1919 
Q 1528 1025 1820 672 
Q 2113 319 2828 319 
Q 3544 319 3836 672 
Q 4128 1025 4128 1919 
L 4128 4331 
L 3531 4331 
L 3531 4666 
L 5106 4666 
L 5106 4331 
L 4513 4331 
L 4513 1856 
Q 4513 791 4103 350 
Q 3694 -91 2713 -91 
Q 1731 -91 1314 353 
Q 897 797 897 1856 
L 897 4331 
z
" transform="scale(0.015625)"/>
       <path id="DejaVuSerif-4e" d="M 313 0 
L 313 331 
L 941 331 
L 941 4331 
L 313 4331 
L 313 4666 
L 1509 4666 
L 4306 984 
L 4306 4331 
L 3681 4331 
L 3681 4666 
L 5319 4666 
L 5319 4331 
L 4691 4331 
L 4691 -91 
L 4313 -91 
L 1325 3841 
L 1325 331 
L 1953 331 
L 1953 0 
L 313 0 
z
" transform="scale(0.015625)"/>
       <path id="DejaVuSerif-47" d="M 4097 3272 
Q 3988 3856 3641 4136 
Q 3294 4416 2675 4416 
Q 1869 4416 1472 3897 
Q 1075 3378 1075 2328 
Q 1075 1300 1484 772 
Q 1894 244 2688 244 
Q 3041 244 3362 331 
Q 3684 419 3975 594 
L 3975 1797 
L 3097 1797 
L 3097 2131 
L 4609 2131 
L 4609 391 
Q 4194 150 3714 29 
Q 3234 -91 2688 -91 
Q 1631 -91 995 570 
Q 359 1231 359 2328 
Q 359 3434 996 4092 
Q 1634 4750 2713 4750 
Q 3113 4750 3539 4658 
Q 3966 4566 4447 4378 
L 4447 3272 
L 4097 3272 
z
" transform="scale(0.015625)"/>
      </defs>
      <use xlink:href="#DejaVuSerif-44"/>
      <use xlink:href="#DejaVuSerif-55" transform="translate(80.175781 0)"/>
      <use xlink:href="#DejaVuSerif-4e" transform="translate(164.453125 0)"/>
      <use xlink:href="#DejaVuSerif-47" transform="translate(251.953125 0)"/>
     </g>
    </g>
   </g>
   <g id="matplotlib.axis_2">
    <g id="ytick_1">
     <g id="line2d_6">
      <defs>
       <path id="ma2a16318d0" d="M 0 0 
L -3.5 0 
" style="stroke: #000000; stroke-width: 0.8"/>
      </defs>
      <g>
       <use xlink:href="#ma2a16318d0" x="76.15875" y="429.701421" style="stroke: #000000; stroke-width: 0.8"/>
      </g>
     </g>
     <g id="text_7">
      <!-- −0.001 -->
      <g transform="translate(24.749375 434.260484) scale(0.12 -0.12)">
       <defs>
        <path id="DejaVuSerif-2212" d="M 678 2259 
L 4684 2259 
L 4684 1753 
L 678 1753 
L 678 2259 
z
" transform="scale(0.015625)"/>
        <path id="DejaVuSerif-2e" d="M 603 325 
Q 603 500 722 622 
Q 841 744 1019 744 
Q 1191 744 1312 622 
Q 1434 500 1434 325 
Q 1434 153 1312 31 
Q 1191 -91 1019 -91 
Q 841 -91 722 29 
Q 603 150 603 325 
z
" transform="scale(0.015625)"/>
        <path id="DejaVuSerif-31" d="M 909 0 
L 909 331 
L 1722 331 
L 1722 4213 
L 781 3603 
L 781 4013 
L 1919 4750 
L 2350 4750 
L 2350 331 
L 3163 331 
L 3163 0 
L 909 0 
z
" transform="scale(0.015625)"/>
       </defs>
       <use xlink:href="#DejaVuSerif-2212"/>
       <use xlink:href="#DejaVuSerif-30" transform="translate(83.789062 0)"/>
       <use xlink:href="#DejaVuSerif-2e" transform="translate(147.412109 0)"/>
       <use xlink:href="#DejaVuSerif-30" transform="translate(179.199219 0)"/>
       <use xlink:href="#DejaVuSerif-30" transform="translate(242.822266 0)"/>
       <use xlink:href="#DejaVuSerif-31" transform="translate(306.445312 0)"/>
      </g>
     </g>
    </g>
    <g id="ytick_2">
     <g id="line2d_7">
      <g>
       <use xlink:href="#ma2a16318d0" x="76.15875" y="363.67749" style="stroke: #000000; stroke-width: 0.8"/>
      </g>
     </g>
     <g id="text_8">
      <!-- 0.000 -->
      <g transform="translate(34.805 368.236553) scale(0.12 -0.12)">
       <use xlink:href="#DejaVuSerif-30"/>
       <use xlink:href="#DejaVuSerif-2e" transform="translate(63.623047 0)"/>
       <use xlink:href="#DejaVuSerif-30" transform="translate(95.410156 0)"/>
       <use xlink:href="#DejaVuSerif-30" transform="translate(159.033203 0)"/>
       <use xlink:href="#DejaVuSerif-30" transform="translate(222.65625 0)"/>
      </g>
     </g>
    </g>
    <g id="ytick_3">
     <g id="line2d_8">
      <g>
       <use xlink:href="#ma2a16318d0" x="76.15875" y="297.653559" style="stroke: #000000; stroke-width: 0.8"/>
      </g>
     </g>
     <g id="text_9">
      <!-- 0.001 -->
      <g transform="translate(34.805 302.212622) scale(0.12 -0.12)">
       <use xlink:href="#DejaVuSerif-30"/>
       <use xlink:href="#DejaVuSerif-2e" transform="translate(63.623047 0)"/>
       <use xlink:href="#DejaVuSerif-30" transform="translate(95.410156 0)"/>
       <use xlink:href="#DejaVuSerif-30" transform="translate(159.033203 0)"/>
       <use xlink:href="#DejaVuSerif-31" transform="translate(222.65625 0)"/>
      </g>
     </g>
    </g>
    <g id="ytick_4">
     <g id="line2d_9">
      <g>
       <use xlink:href="#ma2a16318d0" x="76.15875" y="231.629628" style="stroke: #000000; stroke-width: 0.8"/>
      </g>
     </g>
     <g id="text_10">
      <!-- 0.002 -->
      <g transform="translate(34.805 236.18869) scale(0.12 -0.12)">
       <use xlink:href="#DejaVuSerif-30"/>
       <use xlink:href="#DejaVuSerif-2e" transform="translate(63.623047 0)"/>
       <use xlink:href="#DejaVuSerif-30" transform="translate(95.410156 0)"/>
       <use xlink:href="#DejaVuSerif-30" transform="translate(159.033203 0)"/>
       <use xlink:href="#DejaVuSerif-32" transform="translate(222.65625 0)"/>
      </g>
     </g>
    </g>
    <g id="ytick_5">
     <g id="line2d_10">
      <g>
       <use xlink:href="#ma2a16318d0" x="76.15875" y="165.605697" style="stroke: #000000; stroke-width: 0.8"/>
      </g>
     </g>
     <g id="text_11">
      <!-- 0.003 -->
      <g transform="translate(34.805 170.164759) scale(0.12 -0.12)">
       <defs>
        <path id="DejaVuSerif-33" d="M 622 4469 
Q 988 4606 1323 4678 
Q 1659 4750 1953 4750 
Q 2638 4750 3022 4454 
Q 3406 4159 3406 3634 
Q 3406 3213 3140 2930 
Q 2875 2647 2388 2547 
Q 2963 2466 3280 2130 
Q 3597 1794 3597 1259 
Q 3597 606 3158 257 
Q 2719 -91 1894 -91 
Q 1528 -91 1179 -12 
Q 831 66 488 225 
L 488 1131 
L 838 1131 
Q 869 681 1141 450 
Q 1413 219 1906 219 
Q 2384 219 2661 495 
Q 2938 772 2938 1253 
Q 2938 1803 2653 2086 
Q 2369 2369 1819 2369 
L 1522 2369 
L 1522 2688 
L 1678 2688 
Q 2225 2688 2498 2914 
Q 2772 3141 2772 3597 
Q 2772 4006 2547 4223 
Q 2322 4441 1900 4441 
Q 1478 4441 1245 4241 
Q 1013 4041 972 3647 
L 622 3647 
L 622 4469 
z
" transform="scale(0.015625)"/>
       </defs>
       <use xlink:href="#DejaVuSerif-30"/>
       <use xlink:href="#DejaVuSerif-2e" transform="translate(63.623047 0)"/>
       <use xlink:href="#DejaVuSerif-30" transform="translate(95.410156 0)"/>
       <use xlink:href="#DejaVuSerif-30" transform="translate(159.033203 0)"/>
       <use xlink:href="#DejaVuSerif-33" transform="translate(222.65625 0)"/>
      </g>
     </g>
    </g>
    <g id="ytick_6">
     <g id="line2d_11">
      <g>
       <use xlink:href="#ma2a16318d0" x="76.15875" y="99.581766" style="stroke: #000000; stroke-width: 0.8"/>
      </g>
     </g>
     <g id="text_12">
      <!-- 0.004 -->
      <g transform="translate(34.805 104.140828) scale(0.12 -0.12)">
       <use xlink:href="#DejaVuSerif-30"/>
       <use xlink:href="#DejaVuSerif-2e" transform="translate(63.623047 0)"/>
       <use xlink:href="#DejaVuSerif-30" transform="translate(95.410156 0)"/>
       <use xlink:href="#DejaVuSerif-30" transform="translate(159.033203 0)"/>
       <use xlink:href="#DejaVuSerif-34" transform="translate(222.65625 0)"/>
      </g>
     </g>
    </g>
    <g id="ytick_7">
     <g id="line2d_12">
      <g>
       <use xlink:href="#ma2a16318d0" x="76.15875" y="33.557835" style="stroke: #000000; stroke-width: 0.8"/>
      </g>
     </g>
     <g id="text_13">
      <!-- 0.005 -->
      <g transform="translate(34.805 38.116897) scale(0.12 -0.12)">
       <defs>
        <path id="DejaVuSerif-35" d="M 3219 4666 
L 3219 4153 
L 1081 4153 
L 1081 2816 
Q 1244 2928 1461 2984 
Q 1678 3041 1947 3041 
Q 2703 3041 3140 2622 
Q 3578 2203 3578 1478 
Q 3578 738 3136 323 
Q 2694 -91 1894 -91 
Q 1572 -91 1234 -12 
Q 897 66 544 225 
L 544 1131 
L 897 1131 
Q 925 688 1179 453 
Q 1434 219 1894 219 
Q 2388 219 2653 544 
Q 2919 869 2919 1478 
Q 2919 2084 2655 2407 
Q 2391 2731 1894 2731 
Q 1613 2731 1398 2631 
Q 1184 2531 1019 2322 
L 750 2322 
L 750 4666 
L 3219 4666 
z
" transform="scale(0.015625)"/>
       </defs>
       <use xlink:href="#DejaVuSerif-30"/>
       <use xlink:href="#DejaVuSerif-2e" transform="translate(63.623047 0)"/>
       <use xlink:href="#DejaVuSerif-30" transform="translate(95.410156 0)"/>
       <use xlink:href="#DejaVuSerif-30" transform="translate(159.033203 0)"/>
       <use xlink:href="#DejaVuSerif-35" transform="translate(222.65625 0)"/>
      </g>
     </g>
    </g>
    <g id="text_14">
     <!-- Predicted FAT -->
     <g transform="translate(17.837812 289.4225) rotate(-90) scale(0.14 -0.14)">
      <defs>
       <path id="DejaVuSerif-50" d="M 1581 2375 
L 2406 2375 
Q 2872 2375 3115 2626 
Q 3359 2878 3359 3353 
Q 3359 3831 3115 4081 
Q 2872 4331 2406 4331 
L 1581 4331 
L 1581 2375 
z
M 353 0 
L 353 331 
L 947 331 
L 947 4331 
L 353 4331 
L 353 4666 
L 2559 4666 
Q 3259 4666 3668 4311 
Q 4078 3956 4078 3353 
Q 4078 2753 3668 2397 
Q 3259 2041 2559 2041 
L 1581 2041 
L 1581 331 
L 2303 331 
L 2303 0 
L 353 0 
z
" transform="scale(0.015625)"/>
       <path id="DejaVuSerif-72" d="M 3059 3328 
L 3059 2497 
L 2728 2497 
Q 2713 2744 2591 2866 
Q 2469 2988 2234 2988 
Q 1809 2988 1582 2694 
Q 1356 2400 1356 1850 
L 1356 331 
L 2022 331 
L 2022 0 
L 263 0 
L 263 331 
L 781 331 
L 781 2994 
L 231 2994 
L 231 3322 
L 1356 3322 
L 1356 2731 
Q 1525 3078 1790 3245 
Q 2056 3413 2438 3413 
Q 2578 3413 2733 3391 
Q 2888 3369 3059 3328 
z
" transform="scale(0.015625)"/>
       <path id="DejaVuSerif-65" d="M 3469 1600 
L 991 1600 
L 991 1575 
Q 991 903 1244 561 
Q 1497 219 1991 219 
Q 2369 219 2611 417 
Q 2853 616 2950 1006 
L 3413 1006 
Q 3275 459 2904 184 
Q 2534 -91 1931 -91 
Q 1203 -91 761 389 
Q 319 869 319 1663 
Q 319 2450 753 2931 
Q 1188 3413 1894 3413 
Q 2647 3413 3050 2948 
Q 3453 2484 3469 1600 
z
M 2791 1931 
Q 2772 2513 2545 2808 
Q 2319 3103 1894 3103 
Q 1497 3103 1269 2806 
Q 1041 2509 991 1931 
L 2791 1931 
z
" transform="scale(0.015625)"/>
       <path id="DejaVuSerif-64" d="M 3359 331 
L 3909 331 
L 3909 0 
L 2784 0 
L 2784 519 
Q 2616 206 2355 57 
Q 2094 -91 1709 -91 
Q 1097 -91 708 395 
Q 319 881 319 1663 
Q 319 2444 706 2928 
Q 1094 3413 1709 3413 
Q 2094 3413 2355 3264 
Q 2616 3116 2784 2803 
L 2784 4531 
L 2241 4531 
L 2241 4863 
L 3359 4863 
L 3359 331 
z
M 2784 1497 
L 2784 1825 
Q 2784 2422 2554 2737 
Q 2325 3053 1888 3053 
Q 1444 3053 1217 2703 
Q 991 2353 991 1663 
Q 991 975 1217 622 
Q 1444 269 1888 269 
Q 2325 269 2554 583 
Q 2784 897 2784 1497 
z
" transform="scale(0.015625)"/>
       <path id="DejaVuSerif-69" d="M 622 4353 
Q 622 4497 726 4603 
Q 831 4709 978 4709 
Q 1122 4709 1226 4603 
Q 1331 4497 1331 4353 
Q 1331 4206 1228 4103 
Q 1125 4000 978 4000 
Q 831 4000 726 4103 
Q 622 4206 622 4353 
z
M 1356 331 
L 1900 331 
L 1900 0 
L 231 0 
L 231 331 
L 781 331 
L 781 2988 
L 231 2988 
L 231 3322 
L 1356 3322 
L 1356 331 
z
" transform="scale(0.015625)"/>
       <path id="DejaVuSerif-63" d="M 3291 997 
Q 3169 466 2822 187 
Q 2475 -91 1925 -91 
Q 1200 -91 759 389 
Q 319 869 319 1663 
Q 319 2459 759 2936 
Q 1200 3413 1925 3413 
Q 2241 3413 2553 3339 
Q 2866 3266 3181 3116 
L 3181 2266 
L 2847 2266 
Q 2781 2703 2561 2903 
Q 2341 3103 1931 3103 
Q 1466 3103 1228 2742 
Q 991 2381 991 1663 
Q 991 944 1227 581 
Q 1463 219 1931 219 
Q 2303 219 2525 412 
Q 2747 606 2828 997 
L 3291 997 
z
" transform="scale(0.015625)"/>
       <path id="DejaVuSerif-74" d="M 691 2988 
L 184 2988 
L 184 3322 
L 691 3322 
L 691 4353 
L 1269 4353 
L 1269 3322 
L 2350 3322 
L 2350 2988 
L 1269 2988 
L 1269 878 
Q 1269 456 1350 337 
Q 1431 219 1650 219 
Q 1875 219 1978 351 
Q 2081 484 2088 781 
L 2522 781 
Q 2497 328 2275 118 
Q 2053 -91 1600 -91 
Q 1103 -91 897 129 
Q 691 350 691 878 
L 691 2988 
z
" transform="scale(0.015625)"/>
       <path id="DejaVuSerif-20" transform="scale(0.015625)"/>
       <path id="DejaVuSerif-46" d="M 353 0 
L 353 331 
L 947 331 
L 947 4331 
L 353 4331 
L 353 4666 
L 4172 4666 
L 4172 3628 
L 3788 3628 
L 3788 4281 
L 1581 4281 
L 1581 2719 
L 3175 2719 
L 3175 3303 
L 3559 3303 
L 3559 1753 
L 3175 1753 
L 3175 2338 
L 1581 2338 
L 1581 331 
L 2328 331 
L 2328 0 
L 353 0 
z
" transform="scale(0.015625)"/>
       <path id="DejaVuSerif-41" d="M 1281 1691 
L 2994 1691 
L 2138 3909 
L 1281 1691 
z
M -38 0 
L -38 331 
L 372 331 
L 2034 4666 
L 2559 4666 
L 4225 331 
L 4684 331 
L 4684 0 
L 2988 0 
L 2988 331 
L 3506 331 
L 3116 1356 
L 1153 1356 
L 763 331 
L 1275 331 
L 1275 0 
L -38 0 
z
" transform="scale(0.015625)"/>
       <path id="DejaVuSerif-54" d="M 1222 0 
L 1222 331 
L 1819 331 
L 1819 4294 
L 447 4294 
L 447 3566 
L 63 3566 
L 63 4666 
L 4206 4666 
L 4206 3566 
L 3822 3566 
L 3822 4294 
L 2450 4294 
L 2450 331 
L 3047 331 
L 3047 0 
L 1222 0 
z
" transform="scale(0.015625)"/>
      </defs>
      <use xlink:href="#DejaVuSerif-50"/>
      <use xlink:href="#DejaVuSerif-72" transform="translate(67.285156 0)"/>
      <use xlink:href="#DejaVuSerif-65" transform="translate(115.087891 0)"/>
      <use xlink:href="#DejaVuSerif-64" transform="translate(174.267578 0)"/>
      <use xlink:href="#DejaVuSerif-69" transform="translate(238.28125 0)"/>
      <use xlink:href="#DejaVuSerif-63" transform="translate(270.263672 0)"/>
      <use xlink:href="#DejaVuSerif-74" transform="translate(326.269531 0)"/>
      <use xlink:href="#DejaVuSerif-65" transform="translate(366.455078 0)"/>
      <use xlink:href="#DejaVuSerif-64" transform="translate(425.634766 0)"/>
      <use xlink:href="#DejaVuSerif-20" transform="translate(489.648438 0)"/>
      <use xlink:href="#DejaVuSerif-46" transform="translate(521.435547 0)"/>
      <use xlink:href="#DejaVuSerif-41" transform="translate(582.070312 0)"/>
      <use xlink:href="#DejaVuSerif-54" transform="translate(648.787109 0)"/>
     </g>
    </g>
   </g>
   <g id="line2d_13">
    <path d="M 94.980114 218.505347 
L 98.782409 219.632517 
L 102.584705 220.759686 
L 106.387001 221.886856 
L 110.189296 223.014026 
L 113.991592 224.141196 
L 117.793888 225.268366 
L 121.596183 226.395535 
L 125.398479 227.522705 
L 129.200775 228.649875 
L 133.00307 229.777045 
L 136.805366 230.904215 
L 140.607662 232.031384 
L 144.409958 233.158554 
L 148.212253 234.285724 
L 152.014549 235.412894 
L 155.816845 236.540063 
L 159.61914 237.667233 
L 163.421436 238.794403 
L 167.223732 239.921573 
L 171.026027 241.048743 
L 174.828323 242.175912 
L 178.630619 243.303082 
L 182.432914 244.430252 
L 186.23521 245.557422 
L 190.037506 246.684592 
L 193.839801 247.811761 
L 197.642097 248.938931 
L 201.444393 250.066101 
L 205.246688 251.193271 
L 209.048984 252.32044 
L 212.85128 253.44761 
L 216.653576 254.57478 
L 220.455871 255.70195 
L 224.258167 256.82912 
L 228.060463 257.956289 
L 231.862758 259.083459 
L 235.665054 260.210629 
L 239.46735 261.337799 
L 243.269645 262.464969 
L 247.071941 263.592138 
L 250.874237 264.719308 
L 254.676532 265.846478 
L 258.478828 266.973648 
L 262.281124 268.100817 
L 266.083419 269.227987 
L 269.885715 270.355157 
L 273.688011 271.482327 
L 277.490306 272.609497 
L 281.292602 273.736666 
L 285.094898 274.863836 
L 288.897194 275.991006 
L 292.699489 277.118176 
L 296.501785 278.245346 
L 300.304081 279.372515 
L 304.106376 280.499685 
L 307.908672 281.626855 
L 311.710968 282.754025 
L 315.513263 283.881194 
L 319.315559 285.008364 
L 323.117855 286.135534 
L 326.92015 287.262704 
L 330.722446 288.389874 
L 334.524742 289.517043 
L 338.327037 290.644213 
L 342.129333 291.771383 
L 345.931629 292.898553 
L 349.733924 294.025723 
L 353.53622 295.152892 
L 357.338516 296.280062 
L 361.140812 297.407232 
L 364.943107 298.534402 
L 368.745403 299.661571 
L 372.547699 300.788741 
L 376.349994 301.915911 
L 380.15229 303.043081 
L 383.954586 304.170251 
L 387.756881 305.29742 
L 391.559177 306.42459 
L 395.361473 307.55176 
L 399.163768 308.67893 
L 402.966064 309.8061 
L 406.76836 310.933269 
L 410.570655 312.060439 
L 414.372951 313.187609 
L 418.175247 314.314779 
L 421.977542 315.441948 
L 425.779838 316.569118 
L 429.582134 317.696288 
L 433.38443 318.823458 
L 437.186725 319.950628 
L 440.989021 321.077797 
L 444.791317 322.204967 
L 448.593612 323.332137 
L 452.395908 324.459307 
L 456.198204 325.586477 
L 460.000499 326.713646 
L 463.802795 327.840816 
L 467.605091 328.967986 
L 471.407386 330.095156 
" clip-path="url(#p5e4d24aa8b)" style="fill: none; stroke: #000000; stroke-width: 1.5; stroke-linecap: square"/>
   </g>
   <g id="patch_3">
    <path d="M 76.15875 453.3175 
L 76.15875 25.3575 
" style="fill: none; stroke: #000000; stroke-width: 0.8; stroke-linejoin: miter; stroke-linecap: square"/>
   </g>
   <g id="patch_4">
    <path d="M 490.22875 453.3175 
L 490.22875 25.3575 
" style="fill: none; stroke: #000000; stroke-width: 0.8; stroke-linejoin: miter; stroke-linecap: square"/>
   </g>
   <g id="patch_5">
    <path d="M 76.15875 453.3175 
L 490.22875 453.3175 
" style="fill: none; stroke: #000000; stroke-width: 0.8; stroke-linejoin: miter; stroke-linecap: square"/>
   </g>
   <g id="patch_6">
    <path d="M 76.15875 25.3575 
L 490.22875 25.3575 
" style="fill: none; stroke: #000000; stroke-width: 0.8; stroke-linejoin: miter; stroke-linecap: square"/>
   </g>
   <g id="text_15">
    <!-- Effect of DUNG -->
    <g transform="translate(219.59125 19.3575) scale(0.16 -0.16)">
     <defs>
      <path id="DejaVuSerif-45" d="M 353 0 
L 353 331 
L 947 331 
L 947 4331 
L 353 4331 
L 353 4666 
L 4109 4666 
L 4109 3628 
L 3725 3628 
L 3725 4281 
L 1581 4281 
L 1581 2719 
L 3109 2719 
L 3109 3303 
L 3494 3303 
L 3494 1753 
L 3109 1753 
L 3109 2338 
L 1581 2338 
L 1581 384 
L 3775 384 
L 3775 1038 
L 4159 1038 
L 4159 0 
L 353 0 
z
" transform="scale(0.015625)"/>
      <path id="DejaVuSerif-66" d="M 2753 4078 
L 2450 4078 
Q 2447 4313 2317 4434 
Q 2188 4556 1941 4556 
Q 1619 4556 1487 4379 
Q 1356 4203 1356 3750 
L 1356 3322 
L 2284 3322 
L 2284 2988 
L 1356 2988 
L 1356 331 
L 2094 331 
L 2094 0 
L 231 0 
L 231 331 
L 781 331 
L 781 2988 
L 231 2988 
L 231 3322 
L 781 3322 
L 781 3738 
Q 781 4294 1070 4578 
Q 1359 4863 1919 4863 
Q 2128 4863 2337 4825 
Q 2547 4788 2753 4709 
L 2753 4078 
z
" transform="scale(0.015625)"/>
      <path id="DejaVuSerif-6f" d="M 1925 219 
Q 2388 219 2623 584 
Q 2859 950 2859 1663 
Q 2859 2375 2623 2739 
Q 2388 3103 1925 3103 
Q 1463 3103 1227 2739 
Q 991 2375 991 1663 
Q 991 950 1228 584 
Q 1466 219 1925 219 
z
M 1925 -91 
Q 1200 -91 759 389 
Q 319 869 319 1663 
Q 319 2456 758 2934 
Q 1197 3413 1925 3413 
Q 2653 3413 3092 2934 
Q 3531 2456 3531 1663 
Q 3531 869 3092 389 
Q 2653 -91 1925 -91 
z
" transform="scale(0.015625)"/>
     </defs>
     <use xlink:href="#DejaVuSerif-45"/>
     <use xlink:href="#DejaVuSerif-66" transform="translate(72.998047 0)"/>
     <use xlink:href="#DejaVuSerif-66" transform="translate(110.009766 0)"/>
     <use xlink:href="#DejaVuSerif-65" transform="translate(147.021484 0)"/>
     <use xlink:href="#DejaVuSerif-63" transform="translate(206.201172 0)"/>
     <use xlink:href="#DejaVuSerif-74" transform="translate(262.207031 0)"/>
     <use xlink:href="#DejaVuSerif-20" transform="translate(302.392578 0)"/>
     <use xlink:href="#DejaVuSerif-6f" transform="translate(334.179688 0)"/>
     <use xlink:href="#DejaVuSerif-66" transform="translate(394.384766 0)"/>
     <use xlink:href="#DejaVuSerif-20" transform="translate(431.396484 0)"/>
     <use xlink:href="#DejaVuSerif-44" transform="translate(463.183594 0)"/>
     <use xlink:href="#DejaVuSerif-55" transform="translate(543.359375 0)"/>
     <use xlink:href="#DejaVuSerif-4e" transform="translate(627.636719 0)"/>
     <use xlink:href="#DejaVuSerif-47" transform="translate(715.136719 0)"/>
    </g>
   </g>
  </g>
 </g>
 <defs>
  <clipPath id="p5e4d24aa8b">
   <rect x="76.15875" y="25.3575" width="414.07" height="427.96"/>
  </clipPath>
 </defs>
</svg>
