<?xml version="1.0" encoding="utf-8" standalone="no"?>
<!DOCTYPE svg PUBLIC "-//W3C//DTD SVG 1.1//EN"
  "http://www.w3.org/Graphics/SVG/1.1/DTD/svg11.dtd">
<svg xmlns:xlink="http://www.w3.org/1999/xlink" width="497.02382pt" height="496.680625pt" viewBox="0 0 497.02382 496.680625" xmlns="http://www.w3.org/2000/svg" version="1.1">
 <metadata>
  <rdf:RDF xmlns:dc="http://purl.org/dc/elements/1.1/" xmlns:cc="http://creativecommons.org/ns#" xmlns:rdf="http://www.w3.org/1999/02/22-rdf-syntax-ns#">
   <cc:Work>
    <dc:type rdf:resource="http://purl.org/dc/dcmitype/StillImage"/>
    <dc:date>2025-04-11T09:08:16.788282</dc:date>
    <dc:format>image/svg+xml</dc:format>
    <dc:creator>
     <cc:Agent>
      <dc:title>Matplotlib v3.10.1, https://matplotlib.org/</dc:title>
     </cc:Agent>
    </dc:creator>
   </cc:Work>
  </rdf:RDF>
 </metadata>
 <defs>
  <style type="text/css">*{stroke-linejoin: round; stroke-linecap: butt}</style>
 </defs>
 <g id="figure_1">
  <g id="patch_1">
   <path d="M 0 496.680625 
L 497.02382 496.680625 
L 497.02382 0 
L 0 0 
z
" style="fill: #ffffff"/>
  </g>
  <g id="axes_1">
   <g id="patch_2">
    <path d="M 66.103125 453.3175 
L 489.82382 453.3175 
L 489.82382 25.3575 
L 66.103125 25.3575 
z
" style="fill: #ffffff"/>
   </g>
   <g id="PathCollection_1">
    <defs>
     <path id="mcad6bb5db2" d="M 0 2.5 
C 0.663008 2.5 1.29895 2.236584 1.767767 1.767767 
C 2.236584 1.29895 2.5 0.663008 2.5 0 
C 2.5 -0.663008 2.236584 -1.29895 1.767767 -1.767767 
C 1.29895 -2.236584 0.663008 -2.5 0 -2.5 
C -0.663008 -2.5 -1.29895 -2.236584 -1.767767 -1.767767 
C -2.236584 -1.29895 -2.5 -0.663008 -2.5 0 
C -2.5 0.663008 -2.236584 1.29895 -1.767767 1.767767 
C -1.29895 2.236584 -0.663008 2.5 0 2.5 
z
" style="stroke: #000000; stroke-opacity: 0.6"/>
    </defs>
    <g clip-path="url(#p0cb4ca8e07)">
     <use xlink:href="#mcad6bb5db2" x="85.363157" y="337.046804" style="fill-opacity: 0.6; stroke: #000000; stroke-opacity: 0.6"/>
     <use xlink:href="#mcad6bb5db2" x="85.363157" y="369.253215" style="fill-opacity: 0.6; stroke: #000000; stroke-opacity: 0.6"/>
     <use xlink:href="#mcad6bb5db2" x="164.669169" y="433.864773" style="fill-opacity: 0.6; stroke: #000000; stroke-opacity: 0.6"/>
     <use xlink:href="#mcad6bb5db2" x="153.339739" y="246.475053" style="fill-opacity: 0.6; stroke: #000000; stroke-opacity: 0.6"/>
     <use xlink:href="#mcad6bb5db2" x="136.345593" y="366.123484" style="fill-opacity: 0.6; stroke: #000000; stroke-opacity: 0.6"/>
     <use xlink:href="#mcad6bb5db2" x="164.669169" y="370.756683" style="fill-opacity: 0.6; stroke: #000000; stroke-opacity: 0.6"/>
     <use xlink:href="#mcad6bb5db2" x="147.675024" y="393.944635" style="fill-opacity: 0.6; stroke: #000000; stroke-opacity: 0.6"/>
     <use xlink:href="#mcad6bb5db2" x="470.563789" y="383.017106" style="fill-opacity: 0.6; stroke: #000000; stroke-opacity: 0.6"/>
     <use xlink:href="#mcad6bb5db2" x="198.65746" y="391.151439" style="fill-opacity: 0.6; stroke: #000000; stroke-opacity: 0.6"/>
     <use xlink:href="#mcad6bb5db2" x="272.298757" y="412.696867" style="fill-opacity: 0.6; stroke: #000000; stroke-opacity: 0.6"/>
     <use xlink:href="#mcad6bb5db2" x="153.339739" y="266.839383" style="fill-opacity: 0.6; stroke: #000000; stroke-opacity: 0.6"/>
     <use xlink:href="#mcad6bb5db2" x="85.363157" y="405.185647" style="fill-opacity: 0.6; stroke: #000000; stroke-opacity: 0.6"/>
     <use xlink:href="#mcad6bb5db2" x="85.363157" y="372.811765" style="fill-opacity: 0.6; stroke: #000000; stroke-opacity: 0.6"/>
     <use xlink:href="#mcad6bb5db2" x="249.639897" y="259.750864" style="fill-opacity: 0.6; stroke: #000000; stroke-opacity: 0.6"/>
     <use xlink:href="#mcad6bb5db2" x="85.363157" y="305.941779" style="fill-opacity: 0.6; stroke: #000000; stroke-opacity: 0.6"/>
     <use xlink:href="#mcad6bb5db2" x="215.651606" y="346.108765" style="fill-opacity: 0.6; stroke: #000000; stroke-opacity: 0.6"/>
     <use xlink:href="#mcad6bb5db2" x="215.651606" y="259.208888" style="fill-opacity: 0.6; stroke: #000000; stroke-opacity: 0.6"/>
     <use xlink:href="#mcad6bb5db2" x="85.363157" y="350.077779" style="fill-opacity: 0.6; stroke: #000000; stroke-opacity: 0.6"/>
     <use xlink:href="#mcad6bb5db2" x="238.310466" y="276.938357" style="fill-opacity: 0.6; stroke: #000000; stroke-opacity: 0.6"/>
     <use xlink:href="#mcad6bb5db2" x="249.639897" y="401.342949" style="fill-opacity: 0.6; stroke: #000000; stroke-opacity: 0.6"/>
     <use xlink:href="#mcad6bb5db2" x="85.363157" y="385.723549" style="fill-opacity: 0.6; stroke: #000000; stroke-opacity: 0.6"/>
     <use xlink:href="#mcad6bb5db2" x="221.316321" y="268.701346" style="fill-opacity: 0.6; stroke: #000000; stroke-opacity: 0.6"/>
     <use xlink:href="#mcad6bb5db2" x="85.363157" y="375.057369" style="fill-opacity: 0.6; stroke: #000000; stroke-opacity: 0.6"/>
     <use xlink:href="#mcad6bb5db2" x="85.363157" y="384.560304" style="fill-opacity: 0.6; stroke: #000000; stroke-opacity: 0.6"/>
     <use xlink:href="#mcad6bb5db2" x="136.345593" y="287.758764" style="fill-opacity: 0.6; stroke: #000000; stroke-opacity: 0.6"/>
     <use xlink:href="#mcad6bb5db2" x="294.957618" y="317.642122" style="fill-opacity: 0.6; stroke: #000000; stroke-opacity: 0.6"/>
     <use xlink:href="#mcad6bb5db2" x="243.975182" y="357.960653" style="fill-opacity: 0.6; stroke: #000000; stroke-opacity: 0.6"/>
     <use xlink:href="#mcad6bb5db2" x="85.363157" y="309.854718" style="fill-opacity: 0.6; stroke: #000000; stroke-opacity: 0.6"/>
     <use xlink:href="#mcad6bb5db2" x="238.310466" y="367.326376" style="fill-opacity: 0.6; stroke: #000000; stroke-opacity: 0.6"/>
     <use xlink:href="#mcad6bb5db2" x="170.333884" y="241.289317" style="fill-opacity: 0.6; stroke: #000000; stroke-opacity: 0.6"/>
     <use xlink:href="#mcad6bb5db2" x="85.363157" y="285.255499" style="fill-opacity: 0.6; stroke: #000000; stroke-opacity: 0.6"/>
     <use xlink:href="#mcad6bb5db2" x="85.363157" y="367.230486" style="fill-opacity: 0.6; stroke: #000000; stroke-opacity: 0.6"/>
     <use xlink:href="#mcad6bb5db2" x="226.981036" y="262.365692" style="fill-opacity: 0.6; stroke: #000000; stroke-opacity: 0.6"/>
     <use xlink:href="#mcad6bb5db2" x="85.363157" y="345.266632" style="fill-opacity: 0.6; stroke: #000000; stroke-opacity: 0.6"/>
     <use xlink:href="#mcad6bb5db2" x="142.010308" y="373.387101" style="fill-opacity: 0.6; stroke: #000000; stroke-opacity: 0.6"/>
     <use xlink:href="#mcad6bb5db2" x="170.333884" y="228.65749" style="fill-opacity: 0.6; stroke: #000000; stroke-opacity: 0.6"/>
     <use xlink:href="#mcad6bb5db2" x="243.975182" y="338.480031" style="fill-opacity: 0.6; stroke: #000000; stroke-opacity: 0.6"/>
     <use xlink:href="#mcad6bb5db2" x="142.010308" y="315.323176" style="fill-opacity: 0.6; stroke: #000000; stroke-opacity: 0.6"/>
     <use xlink:href="#mcad6bb5db2" x="85.363157" y="262.866932" style="fill-opacity: 0.6; stroke: #000000; stroke-opacity: 0.6"/>
     <use xlink:href="#mcad6bb5db2" x="85.363157" y="142.662192" style="fill-opacity: 0.6; stroke: #000000; stroke-opacity: 0.6"/>
     <use xlink:href="#mcad6bb5db2" x="85.363157" y="199.734367" style="fill-opacity: 0.6; stroke: #000000; stroke-opacity: 0.6"/>
     <use xlink:href="#mcad6bb5db2" x="187.32803" y="44.810227" style="fill-opacity: 0.6; stroke: #000000; stroke-opacity: 0.6"/>
     <use xlink:href="#mcad6bb5db2" x="85.363157" y="142.0887" style="fill-opacity: 0.6; stroke: #000000; stroke-opacity: 0.6"/>
     <use xlink:href="#mcad6bb5db2" x="108.022017" y="291.748397" style="fill-opacity: 0.6; stroke: #000000; stroke-opacity: 0.6"/>
     <use xlink:href="#mcad6bb5db2" x="85.363157" y="272.393504" style="fill-opacity: 0.6; stroke: #000000; stroke-opacity: 0.6"/>
     <use xlink:href="#mcad6bb5db2" x="85.363157" y="81.266028" style="fill-opacity: 0.6; stroke: #000000; stroke-opacity: 0.6"/>
     <use xlink:href="#mcad6bb5db2" x="215.651606" y="324.236944" style="fill-opacity: 0.6; stroke: #000000; stroke-opacity: 0.6"/>
     <use xlink:href="#mcad6bb5db2" x="130.680878" y="170.468087" style="fill-opacity: 0.6; stroke: #000000; stroke-opacity: 0.6"/>
     <use xlink:href="#mcad6bb5db2" x="85.363157" y="343.60022" style="fill-opacity: 0.6; stroke: #000000; stroke-opacity: 0.6"/>
     <use xlink:href="#mcad6bb5db2" x="164.669169" y="68.11209" style="fill-opacity: 0.6; stroke: #000000; stroke-opacity: 0.6"/>
    </g>
   </g>
   <g id="FillBetweenPolyCollection_1">
    <defs>
     <path id="m964d95a04c" d="M 85.363157 -227.547026 
L 85.363157 -133.609697 
L 89.254072 -136.369834 
L 93.144988 -139.100423 
L 97.035903 -141.797253 
L 100.926818 -144.455369 
L 104.817734 -147.06893 
L 108.708649 -149.631044 
L 112.599565 -152.133584 
L 116.49048 -154.566983 
L 120.381396 -156.920035 
L 124.272311 -159.179722 
L 128.163227 -161.331106 
L 132.054142 -163.357372 
L 135.945058 -165.240094 
L 139.835973 -166.959843 
L 143.726889 -168.497211 
L 147.617804 -169.834262 
L 151.50872 -170.956271 
L 155.399635 -171.853457 
L 159.290551 -172.522285 
L 163.181466 -172.965973 
L 167.072382 -173.194028 
L 170.963297 -173.220976 
L 174.854213 -173.064643 
L 178.745128 -172.744402 
L 182.636043 -172.279708 
L 186.526959 -171.68905 
L 190.417874 -170.989331 
L 194.30879 -170.195577 
L 198.199705 -169.3209 
L 202.090621 -168.376586 
L 205.981536 -167.372276 
L 209.872452 -166.316162 
L 213.763367 -165.21519 
L 217.654283 -164.075246 
L 221.545198 -162.901326 
L 225.436114 -161.697671 
L 229.327029 -160.467898 
L 233.217945 -159.215096 
L 237.10886 -157.941913 
L 240.999776 -156.650628 
L 244.890691 -155.343208 
L 248.781607 -154.021356 
L 252.672522 -152.686557 
L 256.563437 -151.340101 
L 260.454353 -149.983122 
L 264.345268 -148.616616 
L 268.236184 -147.241457 
L 272.127099 -145.858424 
L 276.018015 -144.468202 
L 279.90893 -143.071404 
L 283.799846 -141.668577 
L 287.690761 -140.260208 
L 291.581677 -138.846736 
L 295.472592 -137.428554 
L 299.363508 -136.006018 
L 303.254423 -134.579449 
L 307.145339 -133.149138 
L 311.036254 -131.715348 
L 314.92717 -130.278319 
L 318.818085 -128.83827 
L 322.709001 -127.395401 
L 326.599916 -125.949894 
L 330.490832 -124.501916 
L 334.381747 -123.051622 
L 338.272662 -121.599153 
L 342.163578 -120.144639 
L 346.054493 -118.688201 
L 349.945409 -117.229948 
L 353.836324 -115.769984 
L 357.72724 -114.308405 
L 361.618155 -112.845297 
L 365.509071 -111.380745 
L 369.399986 -109.914822 
L 373.290902 -108.447602 
L 377.181817 -106.979149 
L 381.072733 -105.509527 
L 384.963648 -104.038792 
L 388.854564 -102.566999 
L 392.745479 -101.094198 
L 396.636395 -99.620438 
L 400.52731 -98.145762 
L 404.418226 -96.670213 
L 408.309141 -95.193829 
L 412.200056 -93.716648 
L 416.090972 -92.238706 
L 419.981887 -90.760034 
L 423.872803 -89.280664 
L 427.763718 -87.800625 
L 431.654634 -86.319944 
L 435.545549 -84.838649 
L 439.436465 -83.356764 
L 443.32738 -81.874312 
L 447.218296 -80.391316 
L 451.109211 -78.907796 
L 455.000127 -77.423774 
L 458.891042 -75.939267 
L 462.781958 -74.454294 
L 466.672873 -72.968872 
L 470.563789 -71.483018 
L 470.563789 -443.634634 
L 470.563789 -443.634634 
L 466.672873 -440.593619 
L 462.781958 -437.553037 
L 458.891042 -434.512903 
L 455.000127 -431.473235 
L 451.109211 -428.434052 
L 447.218296 -425.395371 
L 443.32738 -422.357214 
L 439.436465 -419.319601 
L 435.545549 -416.282555 
L 431.654634 -413.246099 
L 427.763718 -410.210258 
L 423.872803 -407.175058 
L 419.981887 -404.140527 
L 416.090972 -401.106694 
L 412.200056 -398.07359 
L 408.309141 -395.041249 
L 404.418226 -392.009704 
L 400.52731 -388.978994 
L 396.636395 -385.949157 
L 392.745479 -382.920236 
L 388.854564 -379.892275 
L 384.963648 -376.865321 
L 381.072733 -373.839425 
L 377.181817 -370.814641 
L 373.290902 -367.791028 
L 369.399986 -364.768647 
L 365.509071 -361.747563 
L 361.618155 -358.72785 
L 357.72724 -355.709581 
L 353.836324 -352.692841 
L 349.945409 -349.677716 
L 346.054493 -346.664303 
L 342.163578 -343.652703 
L 338.272662 -340.643028 
L 334.381747 -337.635398 
L 330.490832 -334.629944 
L 326.599916 -331.626805 
L 322.709001 -328.626137 
L 318.818085 -325.628107 
L 314.92717 -322.632897 
L 311.036254 -319.640707 
L 307.145339 -316.651756 
L 303.254423 -313.666284 
L 299.363508 -310.684554 
L 295.472592 -307.706857 
L 291.581677 -304.733515 
L 287.690761 -301.764882 
L 283.799846 -298.801352 
L 279.90893 -295.843363 
L 276.018015 -292.891405 
L 272.127099 -289.946022 
L 268.236184 -287.007828 
L 264.345268 -284.077509 
L 260.454353 -281.155841 
L 256.563437 -278.243701 
L 252.672522 -275.342085 
L 248.781607 -272.452124 
L 244.890691 -269.575112 
L 240.999776 -266.712531 
L 237.10886 -263.866085 
L 233.217945 -261.037741 
L 229.327029 -258.229778 
L 225.436114 -255.444844 
L 221.545198 -252.686028 
L 217.654283 -249.956947 
L 213.763367 -247.261843 
L 209.872452 -244.60571 
L 205.981536 -241.994435 
L 202.090621 -239.434964 
L 198.199705 -236.935489 
L 194.30879 -234.50565 
L 190.417874 -232.156736 
L 186.526959 -229.901856 
L 182.636043 -227.756037 
L 178.745128 -225.736182 
L 174.854213 -223.86078 
L 170.963297 -222.149286 
L 167.072382 -220.621074 
L 163.181466 -219.293968 
L 159.290551 -218.182494 
L 155.399635 -217.296162 
L 151.50872 -216.638187 
L 147.617804 -216.205035 
L 143.726889 -215.986925 
L 139.835973 -215.969132 
L 135.945058 -216.13372 
L 132.054142 -216.461281 
L 128.163227 -216.932386 
L 124.272311 -217.528609 
L 120.381396 -218.233135 
L 116.49048 -219.031027 
L 112.599565 -219.909265 
L 108.708649 -220.856643 
L 104.817734 -221.863597 
L 100.926818 -222.921997 
L 97.035903 -224.024952 
L 93.144988 -225.166621 
L 89.254072 -226.342049 
L 85.363157 -227.547026 
z
" style="stroke: #808080; stroke-opacity: 0.3"/>
    </defs>
    <g clip-path="url(#p0cb4ca8e07)">
     <use xlink:href="#m964d95a04c" x="0" y="496.680625" style="fill: #808080; fill-opacity: 0.3; stroke: #808080; stroke-opacity: 0.3"/>
    </g>
   </g>
   <g id="matplotlib.axis_1">
    <g id="xtick_1">
     <g id="line2d_1">
      <defs>
       <path id="m05b75ee21b" d="M 0 0 
L 0 3.5 
" style="stroke: #000000; stroke-width: 0.8"/>
      </defs>
      <g>
       <use xlink:href="#m05b75ee21b" x="85.363157" y="453.3175" style="stroke: #000000; stroke-width: 0.8"/>
      </g>
     </g>
     <g id="text_1">
      <!-- 0 -->
      <g transform="translate(81.545657 469.435625) scale(0.12 -0.12)">
       <defs>
        <path id="DejaVuSerif-30" d="M 2034 219 
Q 2513 219 2750 744 
Q 2988 1269 2988 2328 
Q 2988 3391 2750 3916 
Q 2513 4441 2034 4441 
Q 1556 4441 1318 3916 
Q 1081 3391 1081 2328 
Q 1081 1269 1318 744 
Q 1556 219 2034 219 
z
M 2034 -91 
Q 1275 -91 848 546 
Q 422 1184 422 2328 
Q 422 3475 848 4112 
Q 1275 4750 2034 4750 
Q 2797 4750 3222 4112 
Q 3647 3475 3647 2328 
Q 3647 1184 3222 546 
Q 2797 -91 2034 -91 
z
" transform="scale(0.015625)"/>
       </defs>
       <use xlink:href="#DejaVuSerif-30"/>
      </g>
     </g>
    </g>
    <g id="xtick_2">
     <g id="line2d_2">
      <g>
       <use xlink:href="#m05b75ee21b" x="142.010308" y="453.3175" style="stroke: #000000; stroke-width: 0.8"/>
      </g>
     </g>
     <g id="text_2">
      <!-- 10 -->
      <g transform="translate(134.375308 469.435625) scale(0.12 -0.12)">
       <defs>
        <path id="DejaVuSerif-31" d="M 909 0 
L 909 331 
L 1722 331 
L 1722 4213 
L 781 3603 
L 781 4013 
L 1919 4750 
L 2350 4750 
L 2350 331 
L 3163 331 
L 3163 0 
L 909 0 
z
" transform="scale(0.015625)"/>
       </defs>
       <use xlink:href="#DejaVuSerif-31"/>
       <use xlink:href="#DejaVuSerif-30" transform="translate(63.623047 0)"/>
      </g>
     </g>
    </g>
    <g id="xtick_3">
     <g id="line2d_3">
      <g>
       <use xlink:href="#m05b75ee21b" x="198.65746" y="453.3175" style="stroke: #000000; stroke-width: 0.8"/>
      </g>
     </g>
     <g id="text_3">
      <!-- 20 -->
      <g transform="translate(191.02246 469.435625) scale(0.12 -0.12)">
       <defs>
        <path id="DejaVuSerif-32" d="M 819 3553 
L 469 3553 
L 469 4384 
Q 803 4563 1142 4656 
Q 1481 4750 1806 4750 
Q 2534 4750 2956 4397 
Q 3378 4044 3378 3438 
Q 3378 2753 2422 1800 
Q 2347 1728 2309 1691 
L 1131 513 
L 3078 513 
L 3078 1088 
L 3444 1088 
L 3444 0 
L 434 0 
L 434 341 
L 1850 1753 
Q 2319 2222 2519 2614 
Q 2719 3006 2719 3438 
Q 2719 3909 2473 4175 
Q 2228 4441 1797 4441 
Q 1350 4441 1106 4219 
Q 863 3997 819 3553 
z
" transform="scale(0.015625)"/>
       </defs>
       <use xlink:href="#DejaVuSerif-32"/>
       <use xlink:href="#DejaVuSerif-30" transform="translate(63.623047 0)"/>
      </g>
     </g>
    </g>
    <g id="xtick_4">
     <g id="line2d_4">
      <g>
       <use xlink:href="#m05b75ee21b" x="255.304612" y="453.3175" style="stroke: #000000; stroke-width: 0.8"/>
      </g>
     </g>
     <g id="text_4">
      <!-- 30 -->
      <g transform="translate(247.669612 469.435625) scale(0.12 -0.12)">
       <defs>
        <path id="DejaVuSerif-33" d="M 622 4469 
Q 988 4606 1323 4678 
Q 1659 4750 1953 4750 
Q 2638 4750 3022 4454 
Q 3406 4159 3406 3634 
Q 3406 3213 3140 2930 
Q 2875 2647 2388 2547 
Q 2963 2466 3280 2130 
Q 3597 1794 3597 1259 
Q 3597 606 3158 257 
Q 2719 -91 1894 -91 
Q 1528 -91 1179 -12 
Q 831 66 488 225 
L 488 1131 
L 838 1131 
Q 869 681 1141 450 
Q 1413 219 1906 219 
Q 2384 219 2661 495 
Q 2938 772 2938 1253 
Q 2938 1803 2653 2086 
Q 2369 2369 1819 2369 
L 1522 2369 
L 1522 2688 
L 1678 2688 
Q 2225 2688 2498 2914 
Q 2772 3141 2772 3597 
Q 2772 4006 2547 4223 
Q 2322 4441 1900 4441 
Q 1478 4441 1245 4241 
Q 1013 4041 972 3647 
L 622 3647 
L 622 4469 
z
" transform="scale(0.015625)"/>
       </defs>
       <use xlink:href="#DejaVuSerif-33"/>
       <use xlink:href="#DejaVuSerif-30" transform="translate(63.623047 0)"/>
      </g>
     </g>
    </g>
    <g id="xtick_5">
     <g id="line2d_5">
      <g>
       <use xlink:href="#m05b75ee21b" x="311.951764" y="453.3175" style="stroke: #000000; stroke-width: 0.8"/>
      </g>
     </g>
     <g id="text_5">
      <!-- 40 -->
      <g transform="translate(304.316764 469.435625) scale(0.12 -0.12)">
       <defs>
        <path id="DejaVuSerif-34" d="M 2234 1581 
L 2234 4063 
L 641 1581 
L 2234 1581 
z
M 3609 0 
L 1484 0 
L 1484 331 
L 2234 331 
L 2234 1247 
L 197 1247 
L 197 1588 
L 2241 4750 
L 2859 4750 
L 2859 1581 
L 3750 1581 
L 3750 1247 
L 2859 1247 
L 2859 331 
L 3609 331 
L 3609 0 
z
" transform="scale(0.015625)"/>
       </defs>
       <use xlink:href="#DejaVuSerif-34"/>
       <use xlink:href="#DejaVuSerif-30" transform="translate(63.623047 0)"/>
      </g>
     </g>
    </g>
    <g id="xtick_6">
     <g id="line2d_6">
      <g>
       <use xlink:href="#m05b75ee21b" x="368.598915" y="453.3175" style="stroke: #000000; stroke-width: 0.8"/>
      </g>
     </g>
     <g id="text_6">
      <!-- 50 -->
      <g transform="translate(360.963915 469.435625) scale(0.12 -0.12)">
       <defs>
        <path id="DejaVuSerif-35" d="M 3219 4666 
L 3219 4153 
L 1081 4153 
L 1081 2816 
Q 1244 2928 1461 2984 
Q 1678 3041 1947 3041 
Q 2703 3041 3140 2622 
Q 3578 2203 3578 1478 
Q 3578 738 3136 323 
Q 2694 -91 1894 -91 
Q 1572 -91 1234 -12 
Q 897 66 544 225 
L 544 1131 
L 897 1131 
Q 925 688 1179 453 
Q 1434 219 1894 219 
Q 2388 219 2653 544 
Q 2919 869 2919 1478 
Q 2919 2084 2655 2407 
Q 2391 2731 1894 2731 
Q 1613 2731 1398 2631 
Q 1184 2531 1019 2322 
L 750 2322 
L 750 4666 
L 3219 4666 
z
" transform="scale(0.015625)"/>
       </defs>
       <use xlink:href="#DejaVuSerif-35"/>
       <use xlink:href="#DejaVuSerif-30" transform="translate(63.623047 0)"/>
      </g>
     </g>
    </g>
    <g id="xtick_7">
     <g id="line2d_7">
      <g>
       <use xlink:href="#m05b75ee21b" x="425.246067" y="453.3175" style="stroke: #000000; stroke-width: 0.8"/>
      </g>
     </g>
     <g id="text_7">
      <!-- 60 -->
      <g transform="translate(417.611067 469.435625) scale(0.12 -0.12)">
       <defs>
        <path id="DejaVuSerif-36" d="M 2094 219 
Q 2534 219 2771 542 
Q 3009 866 3009 1472 
Q 3009 2078 2771 2401 
Q 2534 2725 2094 2725 
Q 1647 2725 1412 2412 
Q 1178 2100 1178 1509 
Q 1178 888 1415 553 
Q 1653 219 2094 219 
z
M 1075 2569 
Q 1288 2803 1556 2918 
Q 1825 3034 2163 3034 
Q 2859 3034 3264 2615 
Q 3669 2197 3669 1472 
Q 3669 763 3233 336 
Q 2797 -91 2069 -91 
Q 1278 -91 853 498 
Q 428 1088 428 2181 
Q 428 3406 931 4078 
Q 1434 4750 2350 4750 
Q 2597 4750 2869 4703 
Q 3141 4656 3425 4563 
L 3425 3794 
L 3072 3794 
Q 3034 4109 2831 4275 
Q 2628 4441 2284 4441 
Q 1678 4441 1381 3981 
Q 1084 3522 1075 2569 
z
" transform="scale(0.015625)"/>
       </defs>
       <use xlink:href="#DejaVuSerif-36"/>
       <use xlink:href="#DejaVuSerif-30" transform="translate(63.623047 0)"/>
      </g>
     </g>
    </g>
    <g id="xtick_8">
     <g id="line2d_8">
      <g>
       <use xlink:href="#m05b75ee21b" x="481.893219" y="453.3175" style="stroke: #000000; stroke-width: 0.8"/>
      </g>
     </g>
     <g id="text_8">
      <!-- 70 -->
      <g transform="translate(474.258219 469.435625) scale(0.12 -0.12)">
       <defs>
        <path id="DejaVuSerif-37" d="M 3609 4347 
L 1784 0 
L 1319 0 
L 3059 4153 
L 903 4153 
L 903 3578 
L 538 3578 
L 538 4666 
L 3609 4666 
L 3609 4347 
z
" transform="scale(0.015625)"/>
       </defs>
       <use xlink:href="#DejaVuSerif-37"/>
       <use xlink:href="#DejaVuSerif-30" transform="translate(63.623047 0)"/>
      </g>
     </g>
    </g>
    <g id="text_9">
     <!-- SOIL -->
     <g transform="translate(260.016129 486.569063) scale(0.14 -0.14)">
      <defs>
       <path id="DejaVuSerif-53" d="M 594 225 
L 594 1288 
L 953 1284 
Q 969 753 1261 498 
Q 1553 244 2150 244 
Q 2706 244 2998 464 
Q 3291 684 3291 1106 
Q 3291 1444 3114 1625 
Q 2938 1806 2369 1978 
L 1753 2163 
Q 1084 2366 811 2669 
Q 538 2972 538 3500 
Q 538 4094 959 4422 
Q 1381 4750 2144 4750 
Q 2469 4750 2856 4679 
Q 3244 4609 3681 4475 
L 3681 3481 
L 3328 3481 
Q 3275 3975 2998 4195 
Q 2722 4416 2156 4416 
Q 1663 4416 1405 4214 
Q 1147 4013 1147 3628 
Q 1147 3294 1340 3103 
Q 1534 2913 2163 2725 
L 2741 2553 
Q 3375 2363 3645 2067 
Q 3916 1772 3916 1275 
Q 3916 597 3481 253 
Q 3047 -91 2188 -91 
Q 1803 -91 1404 -12 
Q 1006 66 594 225 
z
" transform="scale(0.015625)"/>
       <path id="DejaVuSerif-4f" d="M 2625 244 
Q 3391 244 3781 770 
Q 4172 1297 4172 2328 
Q 4172 3363 3781 3889 
Q 3391 4416 2625 4416 
Q 1856 4416 1465 3889 
Q 1075 3363 1075 2328 
Q 1075 1297 1465 770 
Q 1856 244 2625 244 
z
M 2625 -91 
Q 2150 -91 1751 65 
Q 1353 222 1050 525 
Q 700 875 529 1319 
Q 359 1763 359 2328 
Q 359 2894 529 3339 
Q 700 3784 1050 4134 
Q 1356 4441 1750 4595 
Q 2144 4750 2625 4750 
Q 3641 4750 4266 4084 
Q 4891 3419 4891 2328 
Q 4891 1769 4719 1320 
Q 4547 872 4197 525 
Q 3891 219 3497 64 
Q 3103 -91 2625 -91 
z
" transform="scale(0.015625)"/>
       <path id="DejaVuSerif-49" d="M 1581 331 
L 2175 331 
L 2175 0 
L 353 0 
L 353 331 
L 947 331 
L 947 4331 
L 353 4331 
L 353 4666 
L 2175 4666 
L 2175 4331 
L 1581 4331 
L 1581 331 
z
" transform="scale(0.015625)"/>
       <path id="DejaVuSerif-4c" d="M 353 0 
L 353 331 
L 947 331 
L 947 4331 
L 353 4331 
L 353 4666 
L 2175 4666 
L 2175 4331 
L 1581 4331 
L 1581 384 
L 3713 384 
L 3713 1166 
L 4097 1166 
L 4097 0 
L 353 0 
z
" transform="scale(0.015625)"/>
      </defs>
      <use xlink:href="#DejaVuSerif-53"/>
      <use xlink:href="#DejaVuSerif-4f" transform="translate(68.505859 0)"/>
      <use xlink:href="#DejaVuSerif-49" transform="translate(150.488281 0)"/>
      <use xlink:href="#DejaVuSerif-4c" transform="translate(189.990234 0)"/>
     </g>
    </g>
   </g>
   <g id="matplotlib.axis_2">
    <g id="ytick_1">
     <g id="line2d_9">
      <defs>
       <path id="m95168f93dd" d="M 0 0 
L -3.5 0 
" style="stroke: #000000; stroke-width: 0.8"/>
      </defs>
      <g>
       <use xlink:href="#m95168f93dd" x="66.103125" y="449.621721" style="stroke: #000000; stroke-width: 0.8"/>
      </g>
     </g>
     <g id="text_10">
      <!-- 0.000 -->
      <g transform="translate(24.749375 454.180783) scale(0.12 -0.12)">
       <defs>
        <path id="DejaVuSerif-2e" d="M 603 325 
Q 603 500 722 622 
Q 841 744 1019 744 
Q 1191 744 1312 622 
Q 1434 500 1434 325 
Q 1434 153 1312 31 
Q 1191 -91 1019 -91 
Q 841 -91 722 29 
Q 603 150 603 325 
z
" transform="scale(0.015625)"/>
       </defs>
       <use xlink:href="#DejaVuSerif-30"/>
       <use xlink:href="#DejaVuSerif-2e" transform="translate(63.623047 0)"/>
       <use xlink:href="#DejaVuSerif-30" transform="translate(95.410156 0)"/>
       <use xlink:href="#DejaVuSerif-30" transform="translate(159.033203 0)"/>
       <use xlink:href="#DejaVuSerif-30" transform="translate(222.65625 0)"/>
      </g>
     </g>
    </g>
    <g id="ytick_2">
     <g id="line2d_10">
      <g>
       <use xlink:href="#m95168f93dd" x="66.103125" y="365.802372" style="stroke: #000000; stroke-width: 0.8"/>
      </g>
     </g>
     <g id="text_11">
      <!-- 0.001 -->
      <g transform="translate(24.749375 370.361435) scale(0.12 -0.12)">
       <use xlink:href="#DejaVuSerif-30"/>
       <use xlink:href="#DejaVuSerif-2e" transform="translate(63.623047 0)"/>
       <use xlink:href="#DejaVuSerif-30" transform="translate(95.410156 0)"/>
       <use xlink:href="#DejaVuSerif-30" transform="translate(159.033203 0)"/>
       <use xlink:href="#DejaVuSerif-31" transform="translate(222.65625 0)"/>
      </g>
     </g>
    </g>
    <g id="ytick_3">
     <g id="line2d_11">
      <g>
       <use xlink:href="#m95168f93dd" x="66.103125" y="281.983024" style="stroke: #000000; stroke-width: 0.8"/>
      </g>
     </g>
     <g id="text_12">
      <!-- 0.002 -->
      <g transform="translate(24.749375 286.542087) scale(0.12 -0.12)">
       <use xlink:href="#DejaVuSerif-30"/>
       <use xlink:href="#DejaVuSerif-2e" transform="translate(63.623047 0)"/>
       <use xlink:href="#DejaVuSerif-30" transform="translate(95.410156 0)"/>
       <use xlink:href="#DejaVuSerif-30" transform="translate(159.033203 0)"/>
       <use xlink:href="#DejaVuSerif-32" transform="translate(222.65625 0)"/>
      </g>
     </g>
    </g>
    <g id="ytick_4">
     <g id="line2d_12">
      <g>
       <use xlink:href="#m95168f93dd" x="66.103125" y="198.163676" style="stroke: #000000; stroke-width: 0.8"/>
      </g>
     </g>
     <g id="text_13">
      <!-- 0.003 -->
      <g transform="translate(24.749375 202.722738) scale(0.12 -0.12)">
       <use xlink:href="#DejaVuSerif-30"/>
       <use xlink:href="#DejaVuSerif-2e" transform="translate(63.623047 0)"/>
       <use xlink:href="#DejaVuSerif-30" transform="translate(95.410156 0)"/>
       <use xlink:href="#DejaVuSerif-30" transform="translate(159.033203 0)"/>
       <use xlink:href="#DejaVuSerif-33" transform="translate(222.65625 0)"/>
      </g>
     </g>
    </g>
    <g id="ytick_5">
     <g id="line2d_13">
      <g>
       <use xlink:href="#m95168f93dd" x="66.103125" y="114.344328" style="stroke: #000000; stroke-width: 0.8"/>
      </g>
     </g>
     <g id="text_14">
      <!-- 0.004 -->
      <g transform="translate(24.749375 118.90339) scale(0.12 -0.12)">
       <use xlink:href="#DejaVuSerif-30"/>
       <use xlink:href="#DejaVuSerif-2e" transform="translate(63.623047 0)"/>
       <use xlink:href="#DejaVuSerif-30" transform="translate(95.410156 0)"/>
       <use xlink:href="#DejaVuSerif-30" transform="translate(159.033203 0)"/>
       <use xlink:href="#DejaVuSerif-34" transform="translate(222.65625 0)"/>
      </g>
     </g>
    </g>
    <g id="ytick_6">
     <g id="line2d_14">
      <g>
       <use xlink:href="#m95168f93dd" x="66.103125" y="30.52498" style="stroke: #000000; stroke-width: 0.8"/>
      </g>
     </g>
     <g id="text_15">
      <!-- 0.005 -->
      <g transform="translate(24.749375 35.084042) scale(0.12 -0.12)">
       <use xlink:href="#DejaVuSerif-30"/>
       <use xlink:href="#DejaVuSerif-2e" transform="translate(63.623047 0)"/>
       <use xlink:href="#DejaVuSerif-30" transform="translate(95.410156 0)"/>
       <use xlink:href="#DejaVuSerif-30" transform="translate(159.033203 0)"/>
       <use xlink:href="#DejaVuSerif-35" transform="translate(222.65625 0)"/>
      </g>
     </g>
    </g>
    <g id="text_16">
     <!-- Predicted FAT -->
     <g transform="translate(17.837813 289.4225) rotate(-90) scale(0.14 -0.14)">
      <defs>
       <path id="DejaVuSerif-50" d="M 1581 2375 
L 2406 2375 
Q 2872 2375 3115 2626 
Q 3359 2878 3359 3353 
Q 3359 3831 3115 4081 
Q 2872 4331 2406 4331 
L 1581 4331 
L 1581 2375 
z
M 353 0 
L 353 331 
L 947 331 
L 947 4331 
L 353 4331 
L 353 4666 
L 2559 4666 
Q 3259 4666 3668 4311 
Q 4078 3956 4078 3353 
Q 4078 2753 3668 2397 
Q 3259 2041 2559 2041 
L 1581 2041 
L 1581 331 
L 2303 331 
L 2303 0 
L 353 0 
z
" transform="scale(0.015625)"/>
       <path id="DejaVuSerif-72" d="M 3059 3328 
L 3059 2497 
L 2728 2497 
Q 2713 2744 2591 2866 
Q 2469 2988 2234 2988 
Q 1809 2988 1582 2694 
Q 1356 2400 1356 1850 
L 1356 331 
L 2022 331 
L 2022 0 
L 263 0 
L 263 331 
L 781 331 
L 781 2994 
L 231 2994 
L 231 3322 
L 1356 3322 
L 1356 2731 
Q 1525 3078 1790 3245 
Q 2056 3413 2438 3413 
Q 2578 3413 2733 3391 
Q 2888 3369 3059 3328 
z
" transform="scale(0.015625)"/>
       <path id="DejaVuSerif-65" d="M 3469 1600 
L 991 1600 
L 991 1575 
Q 991 903 1244 561 
Q 1497 219 1991 219 
Q 2369 219 2611 417 
Q 2853 616 2950 1006 
L 3413 1006 
Q 3275 459 2904 184 
Q 2534 -91 1931 -91 
Q 1203 -91 761 389 
Q 319 869 319 1663 
Q 319 2450 753 2931 
Q 1188 3413 1894 3413 
Q 2647 3413 3050 2948 
Q 3453 2484 3469 1600 
z
M 2791 1931 
Q 2772 2513 2545 2808 
Q 2319 3103 1894 3103 
Q 1497 3103 1269 2806 
Q 1041 2509 991 1931 
L 2791 1931 
z
" transform="scale(0.015625)"/>
       <path id="DejaVuSerif-64" d="M 3359 331 
L 3909 331 
L 3909 0 
L 2784 0 
L 2784 519 
Q 2616 206 2355 57 
Q 2094 -91 1709 -91 
Q 1097 -91 708 395 
Q 319 881 319 1663 
Q 319 2444 706 2928 
Q 1094 3413 1709 3413 
Q 2094 3413 2355 3264 
Q 2616 3116 2784 2803 
L 2784 4531 
L 2241 4531 
L 2241 4863 
L 3359 4863 
L 3359 331 
z
M 2784 1497 
L 2784 1825 
Q 2784 2422 2554 2737 
Q 2325 3053 1888 3053 
Q 1444 3053 1217 2703 
Q 991 2353 991 1663 
Q 991 975 1217 622 
Q 1444 269 1888 269 
Q 2325 269 2554 583 
Q 2784 897 2784 1497 
z
" transform="scale(0.015625)"/>
       <path id="DejaVuSerif-69" d="M 622 4353 
Q 622 4497 726 4603 
Q 831 4709 978 4709 
Q 1122 4709 1226 4603 
Q 1331 4497 1331 4353 
Q 1331 4206 1228 4103 
Q 1125 4000 978 4000 
Q 831 4000 726 4103 
Q 622 4206 622 4353 
z
M 1356 331 
L 1900 331 
L 1900 0 
L 231 0 
L 231 331 
L 781 331 
L 781 2988 
L 231 2988 
L 231 3322 
L 1356 3322 
L 1356 331 
z
" transform="scale(0.015625)"/>
       <path id="DejaVuSerif-63" d="M 3291 997 
Q 3169 466 2822 187 
Q 2475 -91 1925 -91 
Q 1200 -91 759 389 
Q 319 869 319 1663 
Q 319 2459 759 2936 
Q 1200 3413 1925 3413 
Q 2241 3413 2553 3339 
Q 2866 3266 3181 3116 
L 3181 2266 
L 2847 2266 
Q 2781 2703 2561 2903 
Q 2341 3103 1931 3103 
Q 1466 3103 1228 2742 
Q 991 2381 991 1663 
Q 991 944 1227 581 
Q 1463 219 1931 219 
Q 2303 219 2525 412 
Q 2747 606 2828 997 
L 3291 997 
z
" transform="scale(0.015625)"/>
       <path id="DejaVuSerif-74" d="M 691 2988 
L 184 2988 
L 184 3322 
L 691 3322 
L 691 4353 
L 1269 4353 
L 1269 3322 
L 2350 3322 
L 2350 2988 
L 1269 2988 
L 1269 878 
Q 1269 456 1350 337 
Q 1431 219 1650 219 
Q 1875 219 1978 351 
Q 2081 484 2088 781 
L 2522 781 
Q 2497 328 2275 118 
Q 2053 -91 1600 -91 
Q 1103 -91 897 129 
Q 691 350 691 878 
L 691 2988 
z
" transform="scale(0.015625)"/>
       <path id="DejaVuSerif-20" transform="scale(0.015625)"/>
       <path id="DejaVuSerif-46" d="M 353 0 
L 353 331 
L 947 331 
L 947 4331 
L 353 4331 
L 353 4666 
L 4172 4666 
L 4172 3628 
L 3788 3628 
L 3788 4281 
L 1581 4281 
L 1581 2719 
L 3175 2719 
L 3175 3303 
L 3559 3303 
L 3559 1753 
L 3175 1753 
L 3175 2338 
L 1581 2338 
L 1581 331 
L 2328 331 
L 2328 0 
L 353 0 
z
" transform="scale(0.015625)"/>
       <path id="DejaVuSerif-41" d="M 1281 1691 
L 2994 1691 
L 2138 3909 
L 1281 1691 
z
M -38 0 
L -38 331 
L 372 331 
L 2034 4666 
L 2559 4666 
L 4225 331 
L 4684 331 
L 4684 0 
L 2988 0 
L 2988 331 
L 3506 331 
L 3116 1356 
L 1153 1356 
L 763 331 
L 1275 331 
L 1275 0 
L -38 0 
z
" transform="scale(0.015625)"/>
       <path id="DejaVuSerif-54" d="M 1222 0 
L 1222 331 
L 1819 331 
L 1819 4294 
L 447 4294 
L 447 3566 
L 63 3566 
L 63 4666 
L 4206 4666 
L 4206 3566 
L 3822 3566 
L 3822 4294 
L 2450 4294 
L 2450 331 
L 3047 331 
L 3047 0 
L 1222 0 
z
" transform="scale(0.015625)"/>
      </defs>
      <use xlink:href="#DejaVuSerif-50"/>
      <use xlink:href="#DejaVuSerif-72" transform="translate(67.285156 0)"/>
      <use xlink:href="#DejaVuSerif-65" transform="translate(115.087891 0)"/>
      <use xlink:href="#DejaVuSerif-64" transform="translate(174.267578 0)"/>
      <use xlink:href="#DejaVuSerif-69" transform="translate(238.28125 0)"/>
      <use xlink:href="#DejaVuSerif-63" transform="translate(270.263672 0)"/>
      <use xlink:href="#DejaVuSerif-74" transform="translate(326.269531 0)"/>
      <use xlink:href="#DejaVuSerif-65" transform="translate(366.455078 0)"/>
      <use xlink:href="#DejaVuSerif-64" transform="translate(425.634766 0)"/>
      <use xlink:href="#DejaVuSerif-20" transform="translate(489.648438 0)"/>
      <use xlink:href="#DejaVuSerif-46" transform="translate(521.435547 0)"/>
      <use xlink:href="#DejaVuSerif-41" transform="translate(582.070312 0)"/>
      <use xlink:href="#DejaVuSerif-54" transform="translate(648.787109 0)"/>
     </g>
    </g>
   </g>
   <g id="line2d_15">
    <path d="M 85.363157 316.102264 
L 89.254072 315.324683 
L 93.144988 314.547103 
L 97.035903 313.769523 
L 100.926818 312.991942 
L 104.817734 312.214362 
L 108.708649 311.436781 
L 112.599565 310.659201 
L 116.49048 309.88162 
L 120.381396 309.10404 
L 124.272311 308.326459 
L 128.163227 307.548879 
L 132.054142 306.771298 
L 135.945058 305.993718 
L 139.835973 305.216137 
L 143.726889 304.438557 
L 147.617804 303.660977 
L 151.50872 302.883396 
L 155.399635 302.105816 
L 159.290551 301.328235 
L 163.181466 300.550655 
L 167.072382 299.773074 
L 170.963297 298.995494 
L 174.854213 298.217913 
L 178.745128 297.440333 
L 182.636043 296.662752 
L 186.526959 295.885172 
L 190.417874 295.107592 
L 194.30879 294.330011 
L 198.199705 293.552431 
L 202.090621 292.77485 
L 205.981536 291.99727 
L 209.872452 291.219689 
L 213.763367 290.442109 
L 217.654283 289.664528 
L 221.545198 288.886948 
L 225.436114 288.109367 
L 229.327029 287.331787 
L 233.217945 286.554207 
L 237.10886 285.776626 
L 240.999776 284.999046 
L 244.890691 284.221465 
L 248.781607 283.443885 
L 252.672522 282.666304 
L 256.563437 281.888724 
L 260.454353 281.111143 
L 264.345268 280.333563 
L 268.236184 279.555982 
L 272.127099 278.778402 
L 276.018015 278.000822 
L 279.90893 277.223241 
L 283.799846 276.445661 
L 287.690761 275.66808 
L 291.581677 274.8905 
L 295.472592 274.112919 
L 299.363508 273.335339 
L 303.254423 272.557758 
L 307.145339 271.780178 
L 311.036254 271.002597 
L 314.92717 270.225017 
L 318.818085 269.447437 
L 322.709001 268.669856 
L 326.599916 267.892276 
L 330.490832 267.114695 
L 334.381747 266.337115 
L 338.272662 265.559534 
L 342.163578 264.781954 
L 346.054493 264.004373 
L 349.945409 263.226793 
L 353.836324 262.449212 
L 357.72724 261.671632 
L 361.618155 260.894051 
L 365.509071 260.116471 
L 369.399986 259.338891 
L 373.290902 258.56131 
L 377.181817 257.78373 
L 381.072733 257.006149 
L 384.963648 256.228569 
L 388.854564 255.450988 
L 392.745479 254.673408 
L 396.636395 253.895827 
L 400.52731 253.118247 
L 404.418226 252.340666 
L 408.309141 251.563086 
L 412.200056 250.785506 
L 416.090972 250.007925 
L 419.981887 249.230345 
L 423.872803 248.452764 
L 427.763718 247.675184 
L 431.654634 246.897603 
L 435.545549 246.120023 
L 439.436465 245.342442 
L 443.32738 244.564862 
L 447.218296 243.787281 
L 451.109211 243.009701 
L 455.000127 242.232121 
L 458.891042 241.45454 
L 462.781958 240.67696 
L 466.672873 239.899379 
L 470.563789 239.121799 
" clip-path="url(#p0cb4ca8e07)" style="fill: none; stroke: #000000; stroke-width: 1.5; stroke-linecap: square"/>
   </g>
   <g id="patch_3">
    <path d="M 66.103125 453.3175 
L 66.103125 25.3575 
" style="fill: none; stroke: #000000; stroke-width: 0.8; stroke-linejoin: miter; stroke-linecap: square"/>
   </g>
   <g id="patch_4">
    <path d="M 489.82382 453.3175 
L 489.82382 25.3575 
" style="fill: none; stroke: #000000; stroke-width: 0.8; stroke-linejoin: miter; stroke-linecap: square"/>
   </g>
   <g id="patch_5">
    <path d="M 66.103125 453.3175 
L 489.82382 453.3175 
" style="fill: none; stroke: #000000; stroke-width: 0.8; stroke-linejoin: miter; stroke-linecap: square"/>
   </g>
   <g id="patch_6">
    <path d="M 66.103125 25.3575 
L 489.82382 25.3575 
" style="fill: none; stroke: #000000; stroke-width: 0.8; stroke-linejoin: miter; stroke-linecap: square"/>
   </g>
   <g id="text_17">
    <!-- Effect of SOIL -->
    <g transform="translate(220.397223 19.3575) scale(0.16 -0.16)">
     <defs>
      <path id="DejaVuSerif-45" d="M 353 0 
L 353 331 
L 947 331 
L 947 4331 
L 353 4331 
L 353 4666 
L 4109 4666 
L 4109 3628 
L 3725 3628 
L 3725 4281 
L 1581 4281 
L 1581 2719 
L 3109 2719 
L 3109 3303 
L 3494 3303 
L 3494 1753 
L 3109 1753 
L 3109 2338 
L 1581 2338 
L 1581 384 
L 3775 384 
L 3775 1038 
L 4159 1038 
L 4159 0 
L 353 0 
z
" transform="scale(0.015625)"/>
      <path id="DejaVuSerif-66" d="M 2753 4078 
L 2450 4078 
Q 2447 4313 2317 4434 
Q 2188 4556 1941 4556 
Q 1619 4556 1487 4379 
Q 1356 4203 1356 3750 
L 1356 3322 
L 2284 3322 
L 2284 2988 
L 1356 2988 
L 1356 331 
L 2094 331 
L 2094 0 
L 231 0 
L 231 331 
L 781 331 
L 781 2988 
L 231 2988 
L 231 3322 
L 781 3322 
L 781 3738 
Q 781 4294 1070 4578 
Q 1359 4863 1919 4863 
Q 2128 4863 2337 4825 
Q 2547 4788 2753 4709 
L 2753 4078 
z
" transform="scale(0.015625)"/>
      <path id="DejaVuSerif-6f" d="M 1925 219 
Q 2388 219 2623 584 
Q 2859 950 2859 1663 
Q 2859 2375 2623 2739 
Q 2388 3103 1925 3103 
Q 1463 3103 1227 2739 
Q 991 2375 991 1663 
Q 991 950 1228 584 
Q 1466 219 1925 219 
z
M 1925 -91 
Q 1200 -91 759 389 
Q 319 869 319 1663 
Q 319 2456 758 2934 
Q 1197 3413 1925 3413 
Q 2653 3413 3092 2934 
Q 3531 2456 3531 1663 
Q 3531 869 3092 389 
Q 2653 -91 1925 -91 
z
" transform="scale(0.015625)"/>
     </defs>
     <use xlink:href="#DejaVuSerif-45"/>
     <use xlink:href="#DejaVuSerif-66" transform="translate(72.998047 0)"/>
     <use xlink:href="#DejaVuSerif-66" transform="translate(110.009766 0)"/>
     <use xlink:href="#DejaVuSerif-65" transform="translate(147.021484 0)"/>
     <use xlink:href="#DejaVuSerif-63" transform="translate(206.201172 0)"/>
     <use xlink:href="#DejaVuSerif-74" transform="translate(262.207031 0)"/>
     <use xlink:href="#DejaVuSerif-20" transform="translate(302.392578 0)"/>
     <use xlink:href="#DejaVuSerif-6f" transform="translate(334.179688 0)"/>
     <use xlink:href="#DejaVuSerif-66" transform="translate(394.384766 0)"/>
     <use xlink:href="#DejaVuSerif-20" transform="translate(431.396484 0)"/>
     <use xlink:href="#DejaVuSerif-53" transform="translate(463.183594 0)"/>
     <use xlink:href="#DejaVuSerif-4f" transform="translate(531.689453 0)"/>
     <use xlink:href="#DejaVuSerif-49" transform="translate(613.671875 0)"/>
     <use xlink:href="#DejaVuSerif-4c" transform="translate(653.173828 0)"/>
    </g>
   </g>
  </g>
 </g>
 <defs>
  <clipPath id="p0cb4ca8e07">
   <rect x="66.103125" y="25.3575" width="423.720695" height="427.96"/>
  </clipPath>
 </defs>
</svg>
