<?xml version="1.0" encoding="utf-8" standalone="no"?>
<!DOCTYPE svg PUBLIC "-//W3C//DTD SVG 1.1//EN"
  "http://www.w3.org/Graphics/SVG/1.1/DTD/svg11.dtd">
<svg xmlns:xlink="http://www.w3.org/1999/xlink" width="497.378125pt" height="496.680625pt" viewBox="0 0 497.378125 496.680625" xmlns="http://www.w3.org/2000/svg" version="1.1">
 <metadata>
  <rdf:RDF xmlns:dc="http://purl.org/dc/elements/1.1/" xmlns:cc="http://creativecommons.org/ns#" xmlns:rdf="http://www.w3.org/1999/02/22-rdf-syntax-ns#">
   <cc:Work>
    <dc:type rdf:resource="http://purl.org/dc/dcmitype/StillImage"/>
    <dc:date>2025-04-11T11:54:18.091862</dc:date>
    <dc:format>image/svg+xml</dc:format>
    <dc:creator>
     <cc:Agent>
      <dc:title>Matplotlib v3.10.1, https://matplotlib.org/</dc:title>
     </cc:Agent>
    </dc:creator>
   </cc:Work>
  </rdf:RDF>
 </metadata>
 <defs>
  <style type="text/css">*{stroke-linejoin: round; stroke-linecap: butt}</style>
 </defs>
 <g id="figure_1">
  <g id="patch_1">
   <path d="M 0 496.680625 
L 497.378125 496.680625 
L 497.378125 0 
L 0 0 
z
" style="fill: #ffffff"/>
  </g>
  <g id="axes_1">
   <g id="patch_2">
    <path d="M 58.468125 453.3175 
L 490.178125 453.3175 
L 490.178125 25.3575 
L 58.468125 25.3575 
z
" style="fill: #ffffff"/>
   </g>
   <g id="PathCollection_1">
    <defs>
     <path id="m88fd6b4e3f" d="M 0 2.5 
C 0.663008 2.5 1.29895 2.236584 1.767767 1.767767 
C 2.236584 1.29895 2.5 0.663008 2.5 0 
C 2.5 -0.663008 2.236584 -1.29895 1.767767 -1.767767 
C 1.29895 -2.236584 0.663008 -2.5 0 -2.5 
C -0.663008 -2.5 -1.29895 -2.236584 -1.767767 -1.767767 
C -2.236584 -1.29895 -2.5 -0.663008 -2.5 0 
C -2.5 0.663008 -2.236584 1.29895 -1.767767 1.767767 
C -1.29895 2.236584 -0.663008 2.5 0 2.5 
z
" style="stroke: #000000; stroke-opacity: 0.6"/>
    </defs>
    <g clip-path="url(#p03055734d5)">
     <use xlink:href="#m88fd6b4e3f" x="165.805079" y="425.043748" style="fill-opacity: 0.6; stroke: #000000; stroke-opacity: 0.6"/>
     <use xlink:href="#m88fd6b4e3f" x="96.484821" y="427.978054" style="fill-opacity: 0.6; stroke: #000000; stroke-opacity: 0.6"/>
     <use xlink:href="#m88fd6b4e3f" x="115.351398" y="433.864773" style="fill-opacity: 0.6; stroke: #000000; stroke-opacity: 0.6"/>
     <use xlink:href="#m88fd6b4e3f" x="169.342043" y="416.791813" style="fill-opacity: 0.6; stroke: #000000; stroke-opacity: 0.6"/>
     <use xlink:href="#m88fd6b4e3f" x="78.091307" y="427.692906" style="fill-opacity: 0.6; stroke: #000000; stroke-opacity: 0.6"/>
     <use xlink:href="#m88fd6b4e3f" x="470.554943" y="428.115034" style="fill-opacity: 0.6; stroke: #000000; stroke-opacity: 0.6"/>
     <use xlink:href="#m88fd6b4e3f" x="321.148423" y="430.227674" style="fill-opacity: 0.6; stroke: #000000; stroke-opacity: 0.6"/>
     <use xlink:href="#m88fd6b4e3f" x="311.952676" y="429.232074" style="fill-opacity: 0.6; stroke: #000000; stroke-opacity: 0.6"/>
     <use xlink:href="#m88fd6b4e3f" x="346.874547" y="429.973188" style="fill-opacity: 0.6; stroke: #000000; stroke-opacity: 0.6"/>
     <use xlink:href="#m88fd6b4e3f" x="120.116544" y="431.936178" style="fill-opacity: 0.6; stroke: #000000; stroke-opacity: 0.6"/>
     <use xlink:href="#m88fd6b4e3f" x="195.87775" y="418.647194" style="fill-opacity: 0.6; stroke: #000000; stroke-opacity: 0.6"/>
     <use xlink:href="#m88fd6b4e3f" x="223.524526" y="431.251836" style="fill-opacity: 0.6; stroke: #000000; stroke-opacity: 0.6"/>
     <use xlink:href="#m88fd6b4e3f" x="147.939901" y="428.302272" style="fill-opacity: 0.6; stroke: #000000; stroke-opacity: 0.6"/>
     <use xlink:href="#m88fd6b4e3f" x="379.069476" y="418.001364" style="fill-opacity: 0.6; stroke: #000000; stroke-opacity: 0.6"/>
     <use xlink:href="#m88fd6b4e3f" x="256.972794" y="422.209789" style="fill-opacity: 0.6; stroke: #000000; stroke-opacity: 0.6"/>
     <use xlink:href="#m88fd6b4e3f" x="250.198331" y="425.869378" style="fill-opacity: 0.6; stroke: #000000; stroke-opacity: 0.6"/>
     <use xlink:href="#m88fd6b4e3f" x="259.908893" y="417.951985" style="fill-opacity: 0.6; stroke: #000000; stroke-opacity: 0.6"/>
     <use xlink:href="#m88fd6b4e3f" x="281.645757" y="426.230992" style="fill-opacity: 0.6; stroke: #000000; stroke-opacity: 0.6"/>
     <use xlink:href="#m88fd6b4e3f" x="228.012267" y="419.567305" style="fill-opacity: 0.6; stroke: #000000; stroke-opacity: 0.6"/>
     <use xlink:href="#m88fd6b4e3f" x="122.335544" y="430.90173" style="fill-opacity: 0.6; stroke: #000000; stroke-opacity: 0.6"/>
     <use xlink:href="#m88fd6b4e3f" x="232.333548" y="429.478656" style="fill-opacity: 0.6; stroke: #000000; stroke-opacity: 0.6"/>
     <use xlink:href="#m88fd6b4e3f" x="204.154748" y="418.816837" style="fill-opacity: 0.6; stroke: #000000; stroke-opacity: 0.6"/>
     <use xlink:href="#m88fd6b4e3f" x="269.893238" y="428.506867" style="fill-opacity: 0.6; stroke: #000000; stroke-opacity: 0.6"/>
     <use xlink:href="#m88fd6b4e3f" x="104.065332" y="429.372674" style="fill-opacity: 0.6; stroke: #000000; stroke-opacity: 0.6"/>
     <use xlink:href="#m88fd6b4e3f" x="334.922903" y="420.553146" style="fill-opacity: 0.6; stroke: #000000; stroke-opacity: 0.6"/>
     <use xlink:href="#m88fd6b4e3f" x="194.822658" y="423.2758" style="fill-opacity: 0.6; stroke: #000000; stroke-opacity: 0.6"/>
     <use xlink:href="#m88fd6b4e3f" x="328.063597" y="426.949196" style="fill-opacity: 0.6; stroke: #000000; stroke-opacity: 0.6"/>
     <use xlink:href="#m88fd6b4e3f" x="142.786119" y="422.566294" style="fill-opacity: 0.6; stroke: #000000; stroke-opacity: 0.6"/>
     <use xlink:href="#m88fd6b4e3f" x="196.019537" y="427.802501" style="fill-opacity: 0.6; stroke: #000000; stroke-opacity: 0.6"/>
     <use xlink:href="#m88fd6b4e3f" x="200.036258" y="416.319344" style="fill-opacity: 0.6; stroke: #000000; stroke-opacity: 0.6"/>
     <use xlink:href="#m88fd6b4e3f" x="202.644046" y="420.325075" style="fill-opacity: 0.6; stroke: #000000; stroke-opacity: 0.6"/>
     <use xlink:href="#m88fd6b4e3f" x="232.804415" y="427.793765" style="fill-opacity: 0.6; stroke: #000000; stroke-opacity: 0.6"/>
     <use xlink:href="#m88fd6b4e3f" x="159.168518" y="418.239599" style="fill-opacity: 0.6; stroke: #000000; stroke-opacity: 0.6"/>
     <use xlink:href="#m88fd6b4e3f" x="118.858903" y="425.792652" style="fill-opacity: 0.6; stroke: #000000; stroke-opacity: 0.6"/>
     <use xlink:href="#m88fd6b4e3f" x="210.976363" y="428.35469" style="fill-opacity: 0.6; stroke: #000000; stroke-opacity: 0.6"/>
     <use xlink:href="#m88fd6b4e3f" x="211.483099" y="415.168466" style="fill-opacity: 0.6; stroke: #000000; stroke-opacity: 0.6"/>
     <use xlink:href="#m88fd6b4e3f" x="225.971846" y="425.174329" style="fill-opacity: 0.6; stroke: #000000; stroke-opacity: 0.6"/>
     <use xlink:href="#m88fd6b4e3f" x="122.390511" y="423.064522" style="fill-opacity: 0.6; stroke: #000000; stroke-opacity: 0.6"/>
     <use xlink:href="#m88fd6b4e3f" x="337.378411" y="418.285267" style="fill-opacity: 0.6; stroke: #000000; stroke-opacity: 0.6"/>
     <use xlink:href="#m88fd6b4e3f" x="295.174486" y="407.333488" style="fill-opacity: 0.6; stroke: #000000; stroke-opacity: 0.6"/>
     <use xlink:href="#m88fd6b4e3f" x="318.796374" y="412.533298" style="fill-opacity: 0.6; stroke: #000000; stroke-opacity: 0.6"/>
     <use xlink:href="#m88fd6b4e3f" x="363.808573" y="398.418257" style="fill-opacity: 0.6; stroke: #000000; stroke-opacity: 0.6"/>
     <use xlink:href="#m88fd6b4e3f" x="283.811457" y="407.281238" style="fill-opacity: 0.6; stroke: #000000; stroke-opacity: 0.6"/>
     <use xlink:href="#m88fd6b4e3f" x="168.505174" y="420.916639" style="fill-opacity: 0.6; stroke: #000000; stroke-opacity: 0.6"/>
     <use xlink:href="#m88fd6b4e3f" x="305.573983" y="419.153227" style="fill-opacity: 0.6; stroke: #000000; stroke-opacity: 0.6"/>
     <use xlink:href="#m88fd6b4e3f" x="367.652951" y="401.739722" style="fill-opacity: 0.6; stroke: #000000; stroke-opacity: 0.6"/>
     <use xlink:href="#m88fd6b4e3f" x="300.95644" y="423.87665" style="fill-opacity: 0.6; stroke: #000000; stroke-opacity: 0.6"/>
     <use xlink:href="#m88fd6b4e3f" x="276.174377" y="409.866866" style="fill-opacity: 0.6; stroke: #000000; stroke-opacity: 0.6"/>
     <use xlink:href="#m88fd6b4e3f" x="174.903975" y="425.640826" style="fill-opacity: 0.6; stroke: #000000; stroke-opacity: 0.6"/>
     <use xlink:href="#m88fd6b4e3f" x="357.64593" y="400.541275" style="fill-opacity: 0.6; stroke: #000000; stroke-opacity: 0.6"/>
    </g>
   </g>
   <g id="FillBetweenPolyCollection_1">
    <defs>
     <path id="m6ee5bb9558" d="M 78.091307 -68.344187 
L 78.091307 -72.233878 
L 82.055586 -72.295829 
L 86.019865 -72.358643 
L 89.984144 -72.422345 
L 93.948423 -72.486962 
L 97.912703 -72.552522 
L 101.876982 -72.619055 
L 105.841261 -72.686591 
L 109.80554 -72.755165 
L 113.769819 -72.824811 
L 117.734098 -72.895567 
L 121.698378 -72.967472 
L 125.662657 -73.040568 
L 129.626936 -73.1149 
L 133.591215 -73.190516 
L 137.555494 -73.267467 
L 141.519773 -73.345808 
L 145.484052 -73.425596 
L 149.448332 -73.506895 
L 153.412611 -73.589772 
L 157.37689 -73.674299 
L 161.341169 -73.760555 
L 165.305448 -73.848622 
L 169.269727 -73.938592 
L 173.234007 -74.030563 
L 177.198286 -74.124641 
L 181.162565 -74.22094 
L 185.126844 -74.319585 
L 189.091123 -74.420712 
L 193.055402 -74.524467 
L 197.019681 -74.63101 
L 200.983961 -74.740514 
L 204.94824 -74.85317 
L 208.912519 -74.969183 
L 212.876798 -75.088778 
L 216.841077 -75.212199 
L 220.805356 -75.339714 
L 224.769636 -75.471612 
L 228.733915 -75.608209 
L 232.698194 -75.749848 
L 236.662473 -75.896901 
L 240.626752 -76.049772 
L 244.591031 -76.208898 
L 248.55531 -76.37475 
L 252.51959 -76.547835 
L 256.483869 -76.728701 
L 260.448148 -76.917931 
L 264.412427 -77.116152 
L 268.376706 -77.32403 
L 272.340985 -77.542277 
L 276.305265 -77.771645 
L 280.269544 -78.012936 
L 284.233823 -78.266997 
L 288.198102 -78.534726 
L 292.162381 -78.817076 
L 296.12666 -79.115056 
L 300.09094 -79.429742 
L 304.055219 -79.762282 
L 308.019498 -80.113905 
L 311.983777 -80.485935 
L 315.948056 -80.879802 
L 319.912335 -81.297059 
L 323.876614 -81.739401 
L 327.840894 -82.208688 
L 331.805173 -82.706971 
L 335.769452 -83.236519 
L 339.733731 -83.799856 
L 343.69801 -84.399799 
L 347.662289 -85.03951 
L 351.626569 -85.722546 
L 355.590848 -86.452928 
L 359.555127 -87.23522 
L 363.519406 -88.074624 
L 367.483685 -88.977096 
L 371.447964 -89.949483 
L 375.412243 -90.9997 
L 379.376523 -92.136943 
L 383.340802 -93.371953 
L 387.305081 -94.717359 
L 391.26936 -96.188106 
L 395.233639 -97.802006 
L 399.197918 -99.58046 
L 403.162198 -101.549405 
L 407.126477 -103.740578 
L 411.090756 -106.193234 
L 415.055035 -108.956501 
L 419.019314 -112.092692 
L 422.983593 -115.682041 
L 426.947872 -119.829639 
L 430.912152 -124.675858 
L 434.876431 -130.412517 
L 438.84071 -137.308809 
L 442.804989 -145.754691 
L 446.769268 -156.337146 
L 450.733547 -169.982596 
L 454.697827 -188.243713 
L 458.662106 -213.936196 
L 462.626385 -252.750852 
L 466.590664 -318.181139 
L 470.554943 -451.870398 
L 470.554943 -82.034444 
L 470.554943 -82.034444 
L 466.590664 -81.809533 
L 462.626385 -81.588738 
L 458.662106 -81.37191 
L 454.697827 -81.158907 
L 450.733547 -80.949589 
L 446.769268 -80.743822 
L 442.804989 -80.541472 
L 438.84071 -80.342412 
L 434.876431 -80.146515 
L 430.912152 -79.953659 
L 426.947872 -79.763722 
L 422.983593 -79.576586 
L 419.019314 -79.392134 
L 415.055035 -79.210251 
L 411.090756 -79.030822 
L 407.126477 -78.853736 
L 403.162198 -78.678881 
L 399.197918 -78.506144 
L 395.233639 -78.335417 
L 391.26936 -78.166589 
L 387.305081 -77.99955 
L 383.340802 -77.834191 
L 379.376523 -77.670403 
L 375.412243 -77.508076 
L 371.447964 -77.347101 
L 367.483685 -77.18737 
L 363.519406 -77.028774 
L 359.555127 -76.871206 
L 355.590848 -76.714561 
L 351.626569 -76.558733 
L 347.662289 -76.403621 
L 343.69801 -76.249126 
L 339.733731 -76.095154 
L 335.769452 -75.941616 
L 331.805173 -75.788431 
L 327.840894 -75.635524 
L 323.876614 -75.482831 
L 319.912335 -75.3303 
L 315.948056 -75.177891 
L 311.983777 -75.025578 
L 308.019498 -74.873352 
L 304.055219 -74.72122 
L 300.09094 -74.569207 
L 296.12666 -74.417355 
L 292.162381 -74.265725 
L 288.198102 -74.114393 
L 284.233823 -73.963451 
L 280.269544 -73.813004 
L 276.305265 -73.663169 
L 272.340985 -73.514071 
L 268.376706 -73.365839 
L 264.412427 -73.218608 
L 260.448148 -73.07251 
L 256.483869 -72.927676 
L 252.51959 -72.78423 
L 248.55531 -72.642292 
L 244.591031 -72.501971 
L 240.626752 -72.363366 
L 236.662473 -72.226568 
L 232.698194 -72.091655 
L 228.733915 -71.958693 
L 224.769636 -71.82774 
L 220.805356 -71.698842 
L 216.841077 -71.572033 
L 212.876798 -71.44734 
L 208.912519 -71.324782 
L 204.94824 -71.204367 
L 200.983961 -71.086098 
L 197.019681 -70.96997 
L 193.055402 -70.855975 
L 189.091123 -70.744096 
L 185.126844 -70.634316 
L 181.162565 -70.52661 
L 177.198286 -70.420953 
L 173.234007 -70.317316 
L 169.269727 -70.215668 
L 165.305448 -70.115976 
L 161.341169 -70.018205 
L 157.37689 -69.92232 
L 153.412611 -69.828284 
L 149.448332 -69.736061 
L 145.484052 -69.645613 
L 141.519773 -69.556902 
L 137.555494 -69.469891 
L 133.591215 -69.384542 
L 129.626936 -69.300818 
L 125.662657 -69.218682 
L 121.698378 -69.138097 
L 117.734098 -69.059028 
L 113.769819 -68.981438 
L 109.80554 -68.905294 
L 105.841261 -68.83056 
L 101.876982 -68.757203 
L 97.912703 -68.68519 
L 93.948423 -68.614489 
L 89.984144 -68.545069 
L 86.019865 -68.476898 
L 82.055586 -68.409947 
L 78.091307 -68.344187 
z
" style="stroke: #808080; stroke-opacity: 0.3"/>
    </defs>
    <g clip-path="url(#p03055734d5)">
     <use xlink:href="#m6ee5bb9558" x="0" y="496.680625" style="fill: #808080; fill-opacity: 0.3; stroke: #808080; stroke-opacity: 0.3"/>
    </g>
   </g>
   <g id="matplotlib.axis_1">
    <g id="xtick_1">
     <g id="line2d_1">
      <defs>
       <path id="m574bd39a58" d="M 0 0 
L 0 3.5 
" style="stroke: #000000; stroke-width: 0.8"/>
      </defs>
      <g>
       <use xlink:href="#m574bd39a58" x="59.918276" y="453.3175" style="stroke: #000000; stroke-width: 0.8"/>
      </g>
     </g>
     <g id="text_1">
      <!-- 0.0125 -->
      <g transform="translate(38.923901 469.435625) scale(0.12 -0.12)">
       <defs>
        <path id="DejaVuSerif-30" d="M 2034 219 
Q 2513 219 2750 744 
Q 2988 1269 2988 2328 
Q 2988 3391 2750 3916 
Q 2513 4441 2034 4441 
Q 1556 4441 1318 3916 
Q 1081 3391 1081 2328 
Q 1081 1269 1318 744 
Q 1556 219 2034 219 
z
M 2034 -91 
Q 1275 -91 848 546 
Q 422 1184 422 2328 
Q 422 3475 848 4112 
Q 1275 4750 2034 4750 
Q 2797 4750 3222 4112 
Q 3647 3475 3647 2328 
Q 3647 1184 3222 546 
Q 2797 -91 2034 -91 
z
" transform="scale(0.015625)"/>
        <path id="DejaVuSerif-2e" d="M 603 325 
Q 603 500 722 622 
Q 841 744 1019 744 
Q 1191 744 1312 622 
Q 1434 500 1434 325 
Q 1434 153 1312 31 
Q 1191 -91 1019 -91 
Q 841 -91 722 29 
Q 603 150 603 325 
z
" transform="scale(0.015625)"/>
        <path id="DejaVuSerif-31" d="M 909 0 
L 909 331 
L 1722 331 
L 1722 4213 
L 781 3603 
L 781 4013 
L 1919 4750 
L 2350 4750 
L 2350 331 
L 3163 331 
L 3163 0 
L 909 0 
z
" transform="scale(0.015625)"/>
        <path id="DejaVuSerif-32" d="M 819 3553 
L 469 3553 
L 469 4384 
Q 803 4563 1142 4656 
Q 1481 4750 1806 4750 
Q 2534 4750 2956 4397 
Q 3378 4044 3378 3438 
Q 3378 2753 2422 1800 
Q 2347 1728 2309 1691 
L 1131 513 
L 3078 513 
L 3078 1088 
L 3444 1088 
L 3444 0 
L 434 0 
L 434 341 
L 1850 1753 
Q 2319 2222 2519 2614 
Q 2719 3006 2719 3438 
Q 2719 3909 2473 4175 
Q 2228 4441 1797 4441 
Q 1350 4441 1106 4219 
Q 863 3997 819 3553 
z
" transform="scale(0.015625)"/>
        <path id="DejaVuSerif-35" d="M 3219 4666 
L 3219 4153 
L 1081 4153 
L 1081 2816 
Q 1244 2928 1461 2984 
Q 1678 3041 1947 3041 
Q 2703 3041 3140 2622 
Q 3578 2203 3578 1478 
Q 3578 738 3136 323 
Q 2694 -91 1894 -91 
Q 1572 -91 1234 -12 
Q 897 66 544 225 
L 544 1131 
L 897 1131 
Q 925 688 1179 453 
Q 1434 219 1894 219 
Q 2388 219 2653 544 
Q 2919 869 2919 1478 
Q 2919 2084 2655 2407 
Q 2391 2731 1894 2731 
Q 1613 2731 1398 2631 
Q 1184 2531 1019 2322 
L 750 2322 
L 750 4666 
L 3219 4666 
z
" transform="scale(0.015625)"/>
       </defs>
       <use xlink:href="#DejaVuSerif-30"/>
       <use xlink:href="#DejaVuSerif-2e" transform="translate(63.623047 0)"/>
       <use xlink:href="#DejaVuSerif-30" transform="translate(95.410156 0)"/>
       <use xlink:href="#DejaVuSerif-31" transform="translate(159.033203 0)"/>
       <use xlink:href="#DejaVuSerif-32" transform="translate(222.65625 0)"/>
       <use xlink:href="#DejaVuSerif-35" transform="translate(286.279297 0)"/>
      </g>
     </g>
    </g>
    <g id="xtick_2">
     <g id="line2d_2">
      <g>
       <use xlink:href="#m574bd39a58" x="114.797817" y="453.3175" style="stroke: #000000; stroke-width: 0.8"/>
      </g>
     </g>
     <g id="text_2">
      <!-- 0.0150 -->
      <g transform="translate(93.803442 469.435625) scale(0.12 -0.12)">
       <use xlink:href="#DejaVuSerif-30"/>
       <use xlink:href="#DejaVuSerif-2e" transform="translate(63.623047 0)"/>
       <use xlink:href="#DejaVuSerif-30" transform="translate(95.410156 0)"/>
       <use xlink:href="#DejaVuSerif-31" transform="translate(159.033203 0)"/>
       <use xlink:href="#DejaVuSerif-35" transform="translate(222.65625 0)"/>
       <use xlink:href="#DejaVuSerif-30" transform="translate(286.279297 0)"/>
      </g>
     </g>
    </g>
    <g id="xtick_3">
     <g id="line2d_3">
      <g>
       <use xlink:href="#m574bd39a58" x="169.677357" y="453.3175" style="stroke: #000000; stroke-width: 0.8"/>
      </g>
     </g>
     <g id="text_3">
      <!-- 0.0175 -->
      <g transform="translate(148.682982 469.435625) scale(0.12 -0.12)">
       <defs>
        <path id="DejaVuSerif-37" d="M 3609 4347 
L 1784 0 
L 1319 0 
L 3059 4153 
L 903 4153 
L 903 3578 
L 538 3578 
L 538 4666 
L 3609 4666 
L 3609 4347 
z
" transform="scale(0.015625)"/>
       </defs>
       <use xlink:href="#DejaVuSerif-30"/>
       <use xlink:href="#DejaVuSerif-2e" transform="translate(63.623047 0)"/>
       <use xlink:href="#DejaVuSerif-30" transform="translate(95.410156 0)"/>
       <use xlink:href="#DejaVuSerif-31" transform="translate(159.033203 0)"/>
       <use xlink:href="#DejaVuSerif-37" transform="translate(222.65625 0)"/>
       <use xlink:href="#DejaVuSerif-35" transform="translate(286.279297 0)"/>
      </g>
     </g>
    </g>
    <g id="xtick_4">
     <g id="line2d_4">
      <g>
       <use xlink:href="#m574bd39a58" x="224.556898" y="453.3175" style="stroke: #000000; stroke-width: 0.8"/>
      </g>
     </g>
     <g id="text_4">
      <!-- 0.0200 -->
      <g transform="translate(203.562523 469.435625) scale(0.12 -0.12)">
       <use xlink:href="#DejaVuSerif-30"/>
       <use xlink:href="#DejaVuSerif-2e" transform="translate(63.623047 0)"/>
       <use xlink:href="#DejaVuSerif-30" transform="translate(95.410156 0)"/>
       <use xlink:href="#DejaVuSerif-32" transform="translate(159.033203 0)"/>
       <use xlink:href="#DejaVuSerif-30" transform="translate(222.65625 0)"/>
       <use xlink:href="#DejaVuSerif-30" transform="translate(286.279297 0)"/>
      </g>
     </g>
    </g>
    <g id="xtick_5">
     <g id="line2d_5">
      <g>
       <use xlink:href="#m574bd39a58" x="279.436438" y="453.3175" style="stroke: #000000; stroke-width: 0.8"/>
      </g>
     </g>
     <g id="text_5">
      <!-- 0.0225 -->
      <g transform="translate(258.442063 469.435625) scale(0.12 -0.12)">
       <use xlink:href="#DejaVuSerif-30"/>
       <use xlink:href="#DejaVuSerif-2e" transform="translate(63.623047 0)"/>
       <use xlink:href="#DejaVuSerif-30" transform="translate(95.410156 0)"/>
       <use xlink:href="#DejaVuSerif-32" transform="translate(159.033203 0)"/>
       <use xlink:href="#DejaVuSerif-32" transform="translate(222.65625 0)"/>
       <use xlink:href="#DejaVuSerif-35" transform="translate(286.279297 0)"/>
      </g>
     </g>
    </g>
    <g id="xtick_6">
     <g id="line2d_6">
      <g>
       <use xlink:href="#m574bd39a58" x="334.315979" y="453.3175" style="stroke: #000000; stroke-width: 0.8"/>
      </g>
     </g>
     <g id="text_6">
      <!-- 0.0250 -->
      <g transform="translate(313.321604 469.435625) scale(0.12 -0.12)">
       <use xlink:href="#DejaVuSerif-30"/>
       <use xlink:href="#DejaVuSerif-2e" transform="translate(63.623047 0)"/>
       <use xlink:href="#DejaVuSerif-30" transform="translate(95.410156 0)"/>
       <use xlink:href="#DejaVuSerif-32" transform="translate(159.033203 0)"/>
       <use xlink:href="#DejaVuSerif-35" transform="translate(222.65625 0)"/>
       <use xlink:href="#DejaVuSerif-30" transform="translate(286.279297 0)"/>
      </g>
     </g>
    </g>
    <g id="xtick_7">
     <g id="line2d_7">
      <g>
       <use xlink:href="#m574bd39a58" x="389.195519" y="453.3175" style="stroke: #000000; stroke-width: 0.8"/>
      </g>
     </g>
     <g id="text_7">
      <!-- 0.0275 -->
      <g transform="translate(368.201144 469.435625) scale(0.12 -0.12)">
       <use xlink:href="#DejaVuSerif-30"/>
       <use xlink:href="#DejaVuSerif-2e" transform="translate(63.623047 0)"/>
       <use xlink:href="#DejaVuSerif-30" transform="translate(95.410156 0)"/>
       <use xlink:href="#DejaVuSerif-32" transform="translate(159.033203 0)"/>
       <use xlink:href="#DejaVuSerif-37" transform="translate(222.65625 0)"/>
       <use xlink:href="#DejaVuSerif-35" transform="translate(286.279297 0)"/>
      </g>
     </g>
    </g>
    <g id="xtick_8">
     <g id="line2d_8">
      <g>
       <use xlink:href="#m574bd39a58" x="444.07506" y="453.3175" style="stroke: #000000; stroke-width: 0.8"/>
      </g>
     </g>
     <g id="text_8">
      <!-- 0.0300 -->
      <g transform="translate(423.080685 469.435625) scale(0.12 -0.12)">
       <defs>
        <path id="DejaVuSerif-33" d="M 622 4469 
Q 988 4606 1323 4678 
Q 1659 4750 1953 4750 
Q 2638 4750 3022 4454 
Q 3406 4159 3406 3634 
Q 3406 3213 3140 2930 
Q 2875 2647 2388 2547 
Q 2963 2466 3280 2130 
Q 3597 1794 3597 1259 
Q 3597 606 3158 257 
Q 2719 -91 1894 -91 
Q 1528 -91 1179 -12 
Q 831 66 488 225 
L 488 1131 
L 838 1131 
Q 869 681 1141 450 
Q 1413 219 1906 219 
Q 2384 219 2661 495 
Q 2938 772 2938 1253 
Q 2938 1803 2653 2086 
Q 2369 2369 1819 2369 
L 1522 2369 
L 1522 2688 
L 1678 2688 
Q 2225 2688 2498 2914 
Q 2772 3141 2772 3597 
Q 2772 4006 2547 4223 
Q 2322 4441 1900 4441 
Q 1478 4441 1245 4241 
Q 1013 4041 972 3647 
L 622 3647 
L 622 4469 
z
" transform="scale(0.015625)"/>
       </defs>
       <use xlink:href="#DejaVuSerif-30"/>
       <use xlink:href="#DejaVuSerif-2e" transform="translate(63.623047 0)"/>
       <use xlink:href="#DejaVuSerif-30" transform="translate(95.410156 0)"/>
       <use xlink:href="#DejaVuSerif-33" transform="translate(159.033203 0)"/>
       <use xlink:href="#DejaVuSerif-30" transform="translate(222.65625 0)"/>
       <use xlink:href="#DejaVuSerif-30" transform="translate(286.279297 0)"/>
      </g>
     </g>
    </g>
    <g id="text_9">
     <!-- MASS -->
     <g transform="translate(252.632969 486.569063) scale(0.14 -0.14)">
      <defs>
       <path id="DejaVuSerif-4d" d="M 353 0 
L 353 331 
L 947 331 
L 947 4331 
L 319 4331 
L 319 4666 
L 1678 4666 
L 3316 1344 
L 4953 4666 
L 6228 4666 
L 6228 4331 
L 5606 4331 
L 5606 331 
L 6203 331 
L 6203 0 
L 4378 0 
L 4378 331 
L 4972 331 
L 4972 3938 
L 3372 684 
L 2931 684 
L 1331 3938 
L 1331 331 
L 1925 331 
L 1925 0 
L 353 0 
z
" transform="scale(0.015625)"/>
       <path id="DejaVuSerif-41" d="M 1281 1691 
L 2994 1691 
L 2138 3909 
L 1281 1691 
z
M -38 0 
L -38 331 
L 372 331 
L 2034 4666 
L 2559 4666 
L 4225 331 
L 4684 331 
L 4684 0 
L 2988 0 
L 2988 331 
L 3506 331 
L 3116 1356 
L 1153 1356 
L 763 331 
L 1275 331 
L 1275 0 
L -38 0 
z
" transform="scale(0.015625)"/>
       <path id="DejaVuSerif-53" d="M 594 225 
L 594 1288 
L 953 1284 
Q 969 753 1261 498 
Q 1553 244 2150 244 
Q 2706 244 2998 464 
Q 3291 684 3291 1106 
Q 3291 1444 3114 1625 
Q 2938 1806 2369 1978 
L 1753 2163 
Q 1084 2366 811 2669 
Q 538 2972 538 3500 
Q 538 4094 959 4422 
Q 1381 4750 2144 4750 
Q 2469 4750 2856 4679 
Q 3244 4609 3681 4475 
L 3681 3481 
L 3328 3481 
Q 3275 3975 2998 4195 
Q 2722 4416 2156 4416 
Q 1663 4416 1405 4214 
Q 1147 4013 1147 3628 
Q 1147 3294 1340 3103 
Q 1534 2913 2163 2725 
L 2741 2553 
Q 3375 2363 3645 2067 
Q 3916 1772 3916 1275 
Q 3916 597 3481 253 
Q 3047 -91 2188 -91 
Q 1803 -91 1404 -12 
Q 1006 66 594 225 
z
" transform="scale(0.015625)"/>
      </defs>
      <use xlink:href="#DejaVuSerif-4d"/>
      <use xlink:href="#DejaVuSerif-41" transform="translate(102.392578 0)"/>
      <use xlink:href="#DejaVuSerif-53" transform="translate(174.609375 0)"/>
      <use xlink:href="#DejaVuSerif-53" transform="translate(241.365234 0)"/>
     </g>
    </g>
   </g>
   <g id="matplotlib.axis_2">
    <g id="ytick_1">
     <g id="line2d_9">
      <defs>
       <path id="m6b925060f8" d="M 0 0 
L -3.5 0 
" style="stroke: #000000; stroke-width: 0.8"/>
      </defs>
      <g>
       <use xlink:href="#m6b925060f8" x="58.468125" y="435.300378" style="stroke: #000000; stroke-width: 0.8"/>
      </g>
     </g>
     <g id="text_10">
      <!-- 0.00 -->
      <g transform="translate(24.749375 439.859441) scale(0.12 -0.12)">
       <use xlink:href="#DejaVuSerif-30"/>
       <use xlink:href="#DejaVuSerif-2e" transform="translate(63.623047 0)"/>
       <use xlink:href="#DejaVuSerif-30" transform="translate(95.410156 0)"/>
       <use xlink:href="#DejaVuSerif-30" transform="translate(159.033203 0)"/>
      </g>
     </g>
    </g>
    <g id="ytick_2">
     <g id="line2d_10">
      <g>
       <use xlink:href="#m6b925060f8" x="58.468125" y="358.933097" style="stroke: #000000; stroke-width: 0.8"/>
      </g>
     </g>
     <g id="text_11">
      <!-- 0.01 -->
      <g transform="translate(24.749375 363.492159) scale(0.12 -0.12)">
       <use xlink:href="#DejaVuSerif-30"/>
       <use xlink:href="#DejaVuSerif-2e" transform="translate(63.623047 0)"/>
       <use xlink:href="#DejaVuSerif-30" transform="translate(95.410156 0)"/>
       <use xlink:href="#DejaVuSerif-31" transform="translate(159.033203 0)"/>
      </g>
     </g>
    </g>
    <g id="ytick_3">
     <g id="line2d_11">
      <g>
       <use xlink:href="#m6b925060f8" x="58.468125" y="282.565815" style="stroke: #000000; stroke-width: 0.8"/>
      </g>
     </g>
     <g id="text_12">
      <!-- 0.02 -->
      <g transform="translate(24.749375 287.124877) scale(0.12 -0.12)">
       <use xlink:href="#DejaVuSerif-30"/>
       <use xlink:href="#DejaVuSerif-2e" transform="translate(63.623047 0)"/>
       <use xlink:href="#DejaVuSerif-30" transform="translate(95.410156 0)"/>
       <use xlink:href="#DejaVuSerif-32" transform="translate(159.033203 0)"/>
      </g>
     </g>
    </g>
    <g id="ytick_4">
     <g id="line2d_12">
      <g>
       <use xlink:href="#m6b925060f8" x="58.468125" y="206.198533" style="stroke: #000000; stroke-width: 0.8"/>
      </g>
     </g>
     <g id="text_13">
      <!-- 0.03 -->
      <g transform="translate(24.749375 210.757595) scale(0.12 -0.12)">
       <use xlink:href="#DejaVuSerif-30"/>
       <use xlink:href="#DejaVuSerif-2e" transform="translate(63.623047 0)"/>
       <use xlink:href="#DejaVuSerif-30" transform="translate(95.410156 0)"/>
       <use xlink:href="#DejaVuSerif-33" transform="translate(159.033203 0)"/>
      </g>
     </g>
    </g>
    <g id="ytick_5">
     <g id="line2d_13">
      <g>
       <use xlink:href="#m6b925060f8" x="58.468125" y="129.831251" style="stroke: #000000; stroke-width: 0.8"/>
      </g>
     </g>
     <g id="text_14">
      <!-- 0.04 -->
      <g transform="translate(24.749375 134.390314) scale(0.12 -0.12)">
       <defs>
        <path id="DejaVuSerif-34" d="M 2234 1581 
L 2234 4063 
L 641 1581 
L 2234 1581 
z
M 3609 0 
L 1484 0 
L 1484 331 
L 2234 331 
L 2234 1247 
L 197 1247 
L 197 1588 
L 2241 4750 
L 2859 4750 
L 2859 1581 
L 3750 1581 
L 3750 1247 
L 2859 1247 
L 2859 331 
L 3609 331 
L 3609 0 
z
" transform="scale(0.015625)"/>
       </defs>
       <use xlink:href="#DejaVuSerif-30"/>
       <use xlink:href="#DejaVuSerif-2e" transform="translate(63.623047 0)"/>
       <use xlink:href="#DejaVuSerif-30" transform="translate(95.410156 0)"/>
       <use xlink:href="#DejaVuSerif-34" transform="translate(159.033203 0)"/>
      </g>
     </g>
    </g>
    <g id="ytick_6">
     <g id="line2d_14">
      <g>
       <use xlink:href="#m6b925060f8" x="58.468125" y="53.463969" style="stroke: #000000; stroke-width: 0.8"/>
      </g>
     </g>
     <g id="text_15">
      <!-- 0.05 -->
      <g transform="translate(24.749375 58.023032) scale(0.12 -0.12)">
       <use xlink:href="#DejaVuSerif-30"/>
       <use xlink:href="#DejaVuSerif-2e" transform="translate(63.623047 0)"/>
       <use xlink:href="#DejaVuSerif-30" transform="translate(95.410156 0)"/>
       <use xlink:href="#DejaVuSerif-35" transform="translate(159.033203 0)"/>
      </g>
     </g>
    </g>
    <g id="text_16">
     <!-- Predicted FAT -->
     <g transform="translate(17.837813 289.4225) rotate(-90) scale(0.14 -0.14)">
      <defs>
       <path id="DejaVuSerif-50" d="M 1581 2375 
L 2406 2375 
Q 2872 2375 3115 2626 
Q 3359 2878 3359 3353 
Q 3359 3831 3115 4081 
Q 2872 4331 2406 4331 
L 1581 4331 
L 1581 2375 
z
M 353 0 
L 353 331 
L 947 331 
L 947 4331 
L 353 4331 
L 353 4666 
L 2559 4666 
Q 3259 4666 3668 4311 
Q 4078 3956 4078 3353 
Q 4078 2753 3668 2397 
Q 3259 2041 2559 2041 
L 1581 2041 
L 1581 331 
L 2303 331 
L 2303 0 
L 353 0 
z
" transform="scale(0.015625)"/>
       <path id="DejaVuSerif-72" d="M 3059 3328 
L 3059 2497 
L 2728 2497 
Q 2713 2744 2591 2866 
Q 2469 2988 2234 2988 
Q 1809 2988 1582 2694 
Q 1356 2400 1356 1850 
L 1356 331 
L 2022 331 
L 2022 0 
L 263 0 
L 263 331 
L 781 331 
L 781 2994 
L 231 2994 
L 231 3322 
L 1356 3322 
L 1356 2731 
Q 1525 3078 1790 3245 
Q 2056 3413 2438 3413 
Q 2578 3413 2733 3391 
Q 2888 3369 3059 3328 
z
" transform="scale(0.015625)"/>
       <path id="DejaVuSerif-65" d="M 3469 1600 
L 991 1600 
L 991 1575 
Q 991 903 1244 561 
Q 1497 219 1991 219 
Q 2369 219 2611 417 
Q 2853 616 2950 1006 
L 3413 1006 
Q 3275 459 2904 184 
Q 2534 -91 1931 -91 
Q 1203 -91 761 389 
Q 319 869 319 1663 
Q 319 2450 753 2931 
Q 1188 3413 1894 3413 
Q 2647 3413 3050 2948 
Q 3453 2484 3469 1600 
z
M 2791 1931 
Q 2772 2513 2545 2808 
Q 2319 3103 1894 3103 
Q 1497 3103 1269 2806 
Q 1041 2509 991 1931 
L 2791 1931 
z
" transform="scale(0.015625)"/>
       <path id="DejaVuSerif-64" d="M 3359 331 
L 3909 331 
L 3909 0 
L 2784 0 
L 2784 519 
Q 2616 206 2355 57 
Q 2094 -91 1709 -91 
Q 1097 -91 708 395 
Q 319 881 319 1663 
Q 319 2444 706 2928 
Q 1094 3413 1709 3413 
Q 2094 3413 2355 3264 
Q 2616 3116 2784 2803 
L 2784 4531 
L 2241 4531 
L 2241 4863 
L 3359 4863 
L 3359 331 
z
M 2784 1497 
L 2784 1825 
Q 2784 2422 2554 2737 
Q 2325 3053 1888 3053 
Q 1444 3053 1217 2703 
Q 991 2353 991 1663 
Q 991 975 1217 622 
Q 1444 269 1888 269 
Q 2325 269 2554 583 
Q 2784 897 2784 1497 
z
" transform="scale(0.015625)"/>
       <path id="DejaVuSerif-69" d="M 622 4353 
Q 622 4497 726 4603 
Q 831 4709 978 4709 
Q 1122 4709 1226 4603 
Q 1331 4497 1331 4353 
Q 1331 4206 1228 4103 
Q 1125 4000 978 4000 
Q 831 4000 726 4103 
Q 622 4206 622 4353 
z
M 1356 331 
L 1900 331 
L 1900 0 
L 231 0 
L 231 331 
L 781 331 
L 781 2988 
L 231 2988 
L 231 3322 
L 1356 3322 
L 1356 331 
z
" transform="scale(0.015625)"/>
       <path id="DejaVuSerif-63" d="M 3291 997 
Q 3169 466 2822 187 
Q 2475 -91 1925 -91 
Q 1200 -91 759 389 
Q 319 869 319 1663 
Q 319 2459 759 2936 
Q 1200 3413 1925 3413 
Q 2241 3413 2553 3339 
Q 2866 3266 3181 3116 
L 3181 2266 
L 2847 2266 
Q 2781 2703 2561 2903 
Q 2341 3103 1931 3103 
Q 1466 3103 1228 2742 
Q 991 2381 991 1663 
Q 991 944 1227 581 
Q 1463 219 1931 219 
Q 2303 219 2525 412 
Q 2747 606 2828 997 
L 3291 997 
z
" transform="scale(0.015625)"/>
       <path id="DejaVuSerif-74" d="M 691 2988 
L 184 2988 
L 184 3322 
L 691 3322 
L 691 4353 
L 1269 4353 
L 1269 3322 
L 2350 3322 
L 2350 2988 
L 1269 2988 
L 1269 878 
Q 1269 456 1350 337 
Q 1431 219 1650 219 
Q 1875 219 1978 351 
Q 2081 484 2088 781 
L 2522 781 
Q 2497 328 2275 118 
Q 2053 -91 1600 -91 
Q 1103 -91 897 129 
Q 691 350 691 878 
L 691 2988 
z
" transform="scale(0.015625)"/>
       <path id="DejaVuSerif-20" transform="scale(0.015625)"/>
       <path id="DejaVuSerif-46" d="M 353 0 
L 353 331 
L 947 331 
L 947 4331 
L 353 4331 
L 353 4666 
L 4172 4666 
L 4172 3628 
L 3788 3628 
L 3788 4281 
L 1581 4281 
L 1581 2719 
L 3175 2719 
L 3175 3303 
L 3559 3303 
L 3559 1753 
L 3175 1753 
L 3175 2338 
L 1581 2338 
L 1581 331 
L 2328 331 
L 2328 0 
L 353 0 
z
" transform="scale(0.015625)"/>
       <path id="DejaVuSerif-54" d="M 1222 0 
L 1222 331 
L 1819 331 
L 1819 4294 
L 447 4294 
L 447 3566 
L 63 3566 
L 63 4666 
L 4206 4666 
L 4206 3566 
L 3822 3566 
L 3822 4294 
L 2450 4294 
L 2450 331 
L 3047 331 
L 3047 0 
L 1222 0 
z
" transform="scale(0.015625)"/>
      </defs>
      <use xlink:href="#DejaVuSerif-50"/>
      <use xlink:href="#DejaVuSerif-72" transform="translate(67.285156 0)"/>
      <use xlink:href="#DejaVuSerif-65" transform="translate(115.087891 0)"/>
      <use xlink:href="#DejaVuSerif-64" transform="translate(174.267578 0)"/>
      <use xlink:href="#DejaVuSerif-69" transform="translate(238.28125 0)"/>
      <use xlink:href="#DejaVuSerif-63" transform="translate(270.263672 0)"/>
      <use xlink:href="#DejaVuSerif-74" transform="translate(326.269531 0)"/>
      <use xlink:href="#DejaVuSerif-65" transform="translate(366.455078 0)"/>
      <use xlink:href="#DejaVuSerif-64" transform="translate(425.634766 0)"/>
      <use xlink:href="#DejaVuSerif-20" transform="translate(489.648438 0)"/>
      <use xlink:href="#DejaVuSerif-46" transform="translate(521.435547 0)"/>
      <use xlink:href="#DejaVuSerif-41" transform="translate(582.070312 0)"/>
      <use xlink:href="#DejaVuSerif-54" transform="translate(648.787109 0)"/>
     </g>
    </g>
   </g>
   <g id="line2d_15">
    <path d="M 78.091307 426.816165 
L 82.055586 426.748462 
L 86.019865 426.679671 
L 89.984144 426.609763 
L 93.948423 426.538712 
L 97.912703 426.466491 
L 101.876982 426.393068 
L 105.841261 426.318415 
L 109.80554 426.2425 
L 113.769819 426.165291 
L 117.734098 426.086754 
L 121.698378 426.006855 
L 125.662657 425.925558 
L 129.626936 425.842826 
L 133.591215 425.758621 
L 137.555494 425.672903 
L 141.519773 425.585631 
L 145.484052 425.496763 
L 149.448332 425.406253 
L 153.412611 425.314057 
L 157.37689 425.220126 
L 161.341169 425.124412 
L 165.305448 425.026863 
L 169.269727 424.927425 
L 173.234007 424.826043 
L 177.198286 424.72266 
L 181.162565 424.617216 
L 185.126844 424.509648 
L 189.091123 424.399893 
L 193.055402 424.287881 
L 197.019681 424.173544 
L 200.983961 424.056808 
L 204.94824 423.937596 
L 208.912519 423.815829 
L 212.876798 423.691424 
L 216.841077 423.564295 
L 220.805356 423.43435 
L 224.769636 423.301495 
L 228.733915 423.165632 
L 232.698194 423.026657 
L 236.662473 422.884461 
L 240.626752 422.738933 
L 244.591031 422.589952 
L 248.55531 422.437395 
L 252.51959 422.281131 
L 256.483869 422.121024 
L 260.448148 421.95693 
L 264.412427 421.788699 
L 268.376706 421.616171 
L 272.340985 421.43918 
L 276.305265 421.257551 
L 280.269544 421.071098 
L 284.233823 420.879628 
L 288.198102 420.682935 
L 292.162381 420.480801 
L 296.12666 420.273 
L 300.09094 420.059287 
L 304.055219 419.839408 
L 308.019498 419.613093 
L 311.983777 419.380053 
L 315.948056 419.139985 
L 319.912335 418.892566 
L 323.876614 418.637453 
L 327.840894 418.374282 
L 331.805173 418.102664 
L 335.769452 417.822187 
L 339.733731 417.532409 
L 343.69801 417.232861 
L 347.662289 416.92304 
L 351.626569 416.602407 
L 355.590848 416.270388 
L 359.555127 415.926364 
L 363.519406 415.569673 
L 367.483685 415.199601 
L 371.447964 414.815382 
L 375.412243 414.416188 
L 379.376523 414.001126 
L 383.340802 413.569232 
L 387.305081 413.11946 
L 391.26936 412.650676 
L 395.233639 412.16165 
L 399.197918 411.65104 
L 403.162198 411.117387 
L 407.126477 410.559093 
L 411.090756 409.974413 
L 415.055035 409.361429 
L 419.019314 408.718037 
L 422.983593 408.041915 
L 426.947872 407.330501 
L 430.912152 406.580958 
L 434.876431 405.790135 
L 438.84071 404.954528 
L 442.804989 404.070219 
L 446.769268 403.132824 
L 450.733547 402.137414 
L 454.697827 401.078433 
L 458.662106 399.949588 
L 462.626385 398.743731 
L 466.590664 397.452702 
L 470.554943 396.067147 
" clip-path="url(#p03055734d5)" style="fill: none; stroke: #000000; stroke-width: 1.5; stroke-linecap: square"/>
   </g>
   <g id="patch_3">
    <path d="M 58.468125 453.3175 
L 58.468125 25.3575 
" style="fill: none; stroke: #000000; stroke-width: 0.8; stroke-linejoin: miter; stroke-linecap: square"/>
   </g>
   <g id="patch_4">
    <path d="M 490.178125 453.3175 
L 490.178125 25.3575 
" style="fill: none; stroke: #000000; stroke-width: 0.8; stroke-linejoin: miter; stroke-linecap: square"/>
   </g>
   <g id="patch_5">
    <path d="M 58.468125 453.3175 
L 490.178125 453.3175 
" style="fill: none; stroke: #000000; stroke-width: 0.8; stroke-linejoin: miter; stroke-linecap: square"/>
   </g>
   <g id="patch_6">
    <path d="M 58.468125 25.3575 
L 490.178125 25.3575 
" style="fill: none; stroke: #000000; stroke-width: 0.8; stroke-linejoin: miter; stroke-linecap: square"/>
   </g>
   <g id="text_17">
    <!-- Effect of MASS -->
    <g transform="translate(212.479375 19.3575) scale(0.16 -0.16)">
     <defs>
      <path id="DejaVuSerif-45" d="M 353 0 
L 353 331 
L 947 331 
L 947 4331 
L 353 4331 
L 353 4666 
L 4109 4666 
L 4109 3628 
L 3725 3628 
L 3725 4281 
L 1581 4281 
L 1581 2719 
L 3109 2719 
L 3109 3303 
L 3494 3303 
L 3494 1753 
L 3109 1753 
L 3109 2338 
L 1581 2338 
L 1581 384 
L 3775 384 
L 3775 1038 
L 4159 1038 
L 4159 0 
L 353 0 
z
" transform="scale(0.015625)"/>
      <path id="DejaVuSerif-66" d="M 2753 4078 
L 2450 4078 
Q 2447 4313 2317 4434 
Q 2188 4556 1941 4556 
Q 1619 4556 1487 4379 
Q 1356 4203 1356 3750 
L 1356 3322 
L 2284 3322 
L 2284 2988 
L 1356 2988 
L 1356 331 
L 2094 331 
L 2094 0 
L 231 0 
L 231 331 
L 781 331 
L 781 2988 
L 231 2988 
L 231 3322 
L 781 3322 
L 781 3738 
Q 781 4294 1070 4578 
Q 1359 4863 1919 4863 
Q 2128 4863 2337 4825 
Q 2547 4788 2753 4709 
L 2753 4078 
z
" transform="scale(0.015625)"/>
      <path id="DejaVuSerif-6f" d="M 1925 219 
Q 2388 219 2623 584 
Q 2859 950 2859 1663 
Q 2859 2375 2623 2739 
Q 2388 3103 1925 3103 
Q 1463 3103 1227 2739 
Q 991 2375 991 1663 
Q 991 950 1228 584 
Q 1466 219 1925 219 
z
M 1925 -91 
Q 1200 -91 759 389 
Q 319 869 319 1663 
Q 319 2456 758 2934 
Q 1197 3413 1925 3413 
Q 2653 3413 3092 2934 
Q 3531 2456 3531 1663 
Q 3531 869 3092 389 
Q 2653 -91 1925 -91 
z
" transform="scale(0.015625)"/>
     </defs>
     <use xlink:href="#DejaVuSerif-45"/>
     <use xlink:href="#DejaVuSerif-66" transform="translate(72.998047 0)"/>
     <use xlink:href="#DejaVuSerif-66" transform="translate(110.009766 0)"/>
     <use xlink:href="#DejaVuSerif-65" transform="translate(147.021484 0)"/>
     <use xlink:href="#DejaVuSerif-63" transform="translate(206.201172 0)"/>
     <use xlink:href="#DejaVuSerif-74" transform="translate(262.207031 0)"/>
     <use xlink:href="#DejaVuSerif-20" transform="translate(302.392578 0)"/>
     <use xlink:href="#DejaVuSerif-6f" transform="translate(334.179688 0)"/>
     <use xlink:href="#DejaVuSerif-66" transform="translate(394.384766 0)"/>
     <use xlink:href="#DejaVuSerif-20" transform="translate(431.396484 0)"/>
     <use xlink:href="#DejaVuSerif-4d" transform="translate(463.183594 0)"/>
     <use xlink:href="#DejaVuSerif-41" transform="translate(565.576172 0)"/>
     <use xlink:href="#DejaVuSerif-53" transform="translate(637.792969 0)"/>
     <use xlink:href="#DejaVuSerif-53" transform="translate(704.548828 0)"/>
    </g>
   </g>
  </g>
 </g>
 <defs>
  <clipPath id="p03055734d5">
   <rect x="58.468125" y="25.3575" width="431.71" height="427.96"/>
  </clipPath>
 </defs>
</svg>
